<svg width="39" height="50" viewBox="0 0 39 50" fill="none" xmlns="http://www.w3.org/2000/svg">
<path d="M8.75 0C10.0761 0 11.3479 0.526784 12.2855 1.46447C13.2232 2.40215 13.75 3.67392 13.75 5C13.75 6.32608 13.2232 7.59785 12.2855 8.53553C11.3479 9.47322 10.0761 10 8.75 10C7.42392 10 6.15215 9.47322 5.21447 8.53553C4.27678 7.59785 3.75 6.32608 3.75 5C3.75 3.67392 4.27678 2.40215 5.21447 1.46447C6.15215 0.526784 7.42392 0 8.75 0ZM5 12.5H12.5C13.8261 12.5 15.0979 13.0268 16.0355 13.9645C16.9732 14.9021 17.5 16.1739 17.5 17.5V31.25H13.75V50H3.75V31.25H0V17.5C0 16.1739 0.526784 14.9021 1.46447 13.9645C2.40215 13.0268 3.67392 12.5 5 12.5ZM26.25 25C26.25 23.6739 26.7768 22.4021 27.7145 21.4645C28.6521 20.5268 29.9239 20 31.25 20C32.5761 20 33.8479 20.5268 34.7855 21.4645C35.7232 22.4021 36.25 23.6739 36.25 25C36.25 26.3261 35.7232 27.5979 34.7855 28.5355C33.8479 29.4732 32.5761 30 31.25 30C29.9239 30 28.6521 29.4732 27.7145 28.5355C26.7768 27.5979 26.25 26.3261 26.25 25ZM23.75 32.5H38.75V42.5H35V50H27.5V42.5H23.75V32.5Z" fill="#FF4800"/>
</svg>
