<svg width="50" height="50" viewBox="0 0 50 50" fill="none" xmlns="http://www.w3.org/2000/svg">
<path d="M25 0C11.192 0 0 11.1953 0 25.0013C0 38.808 11.192 50 25 50C38.808 50 50 38.808 50 25.0013C50 11.1953 38.808 0 25 0ZM25 43.374C14.8673 43.374 6.62667 35.1327 6.62667 25.0013C6.62314 20.7026 8.13373 16.54 10.8933 13.244L19.4287 21.7793H16.206V21.7853C16.164 21.7888 16.1227 21.7983 16.0833 21.8133L12.0547 19.4873L12.0513 19.4927C11.9183 19.4219 11.77 19.3844 11.6193 19.3833C11.4155 19.384 11.2174 19.4505 11.0545 19.5729C10.8916 19.6953 10.7726 19.8671 10.7152 20.0627C10.6579 20.2582 10.6653 20.4671 10.7363 20.6581C10.8073 20.8491 10.9382 21.0121 11.1093 21.1227L11.1027 21.1347L15.1853 23.4913C15.0273 24.178 14.9333 25.0207 14.9333 25.936C14.9333 27.868 15.35 29.488 15.9127 29.9527L13.61 33.9393C13.4326 34.1638 13.3356 34.4412 13.3347 34.7273C13.3347 35.44 13.912 36.0173 14.6247 36.0173C15.042 36.0173 15.4087 35.816 15.644 35.5093L15.6653 35.5213L18.3567 30.86L21.048 35.5213L21.0693 35.5087C21.3053 35.816 21.672 36.0173 22.0893 36.0173C22.2588 36.0174 22.4266 35.9841 22.5832 35.9193C22.7398 35.8545 22.8821 35.7595 23.0019 35.6397C23.1218 35.5199 23.2169 35.3777 23.2817 35.2212C23.3466 35.0646 23.38 34.8968 23.38 34.7273C23.3788 34.4407 23.2813 34.1627 23.1033 33.938L21.364 30.926C23.2749 31.0341 25.1903 31.0361 27.1013 30.932L25.3653 33.938C25.1874 34.1625 25.0902 34.4403 25.0893 34.7267C25.0893 35.4393 25.6667 36.0167 26.3793 36.0167C26.7967 36.0167 27.1633 35.8153 27.3993 35.508L27.4207 35.5207L29.5253 31.876L32.3033 34.654L32.804 35.5207L32.8247 35.5087C33.022 35.766 33.3113 35.9447 33.646 35.9967L36.756 39.1067C33.4607 41.8667 29.2984 43.3776 25 43.374ZM39.1073 36.7567L32.904 30.5533L32.598 30.0233C33.2107 29.678 33.6773 27.982 33.6773 25.9367C33.6773 25.478 33.6533 25.038 33.61 24.626L34.62 23.616H38.2467V23.606L39.0453 22.8087L39.0413 22.8053C39.1388 22.7128 39.2146 22.5998 39.2634 22.4746C39.3122 22.3493 39.3328 22.2149 39.3236 22.0808C39.3144 21.9466 39.2758 21.8162 39.2104 21.6988C39.145 21.5813 39.0545 21.4798 38.9453 21.4013L37.5113 19.968V18.4747C37.5113 17.914 37.1893 17.4333 36.724 17.1933L34.8647 16.1207L34.86 16.1287C34.8344 16.1134 34.8081 16.0992 34.7813 16.086L33.5107 13.8853L31.2367 17.826H31.3693L27.414 21.7807H24.13L13.2433 10.894C16.5387 8.13414 20.701 6.62349 24.9993 6.62733C35.1313 6.62733 43.3727 14.872 43.3727 25.002C43.3767 29.2998 41.8666 33.4616 39.1073 36.7567Z" fill="#FF4800"/>
</svg>
