<svg width="51" height="50" viewBox="0 0 51 50" fill="none" xmlns="http://www.w3.org/2000/svg">
<path d="M8.8735 0.000104003C7.05005 0.00685064 5.31693 0.645388 3.87804 1.67316C0.194595 4.30435 -1.60687 9.81756 1.84469 14.5101C4.56239 18.2049 3.38499 23.0336 0.572734 25.7591L1.97038 27.2213C5.44969 23.849 6.8766 17.902 3.49381 13.303C0.670778 9.46499 2.14035 5.38327 5.02051 3.32576C6.46081 2.29723 8.26195 1.82921 10.0398 2.17992C11.7445 2.51595 13.486 3.61239 15.0522 5.94422L8.6217 9.66771L11.2469 14.2245C5.86504 21.1192 4.88036 30.8795 9.51606 38.9328C15.6065 49.5135 29.09 53.1404 39.6311 47.0362C50.1722 40.932 53.7775 27.4067 47.6868 16.8259C43.0599 8.7876 34.1682 4.76214 25.5393 5.96794L22.9074 1.39426L16.8104 4.92755C14.9877 2.17035 12.733 0.601861 10.4241 0.146136C9.91335 0.0463458 9.39393 -0.00257056 8.8735 0.000104003ZM24.9376 10.341C35.1116 15.0745 37.0728 21.3978 33.0682 28.7582C36.7592 26.7788 38.3545 23.8608 36.8021 19.6211C40.3658 22.0147 42.2476 26.778 42.1681 31.9174C42.0623 38.7565 38.5379 43.0415 34.0545 44.8698C34.987 43.4439 35.5438 41.6569 35.5438 39.7148C35.5438 35.3319 32.7164 31.7304 29.1 31.3189C30.5566 32.2008 31.528 33.8002 31.528 35.6274C31.528 38.4072 29.2751 40.6602 26.4952 40.6602C24.1915 40.6602 22.2509 39.113 21.6528 37.0012C21.3998 37.8834 21.2716 38.7968 21.272 39.7146C21.272 41.5003 21.7426 43.1559 22.5438 44.5197C18.2758 42.4989 14.9695 38.2671 14.8314 31.9173C14.7234 26.9476 16.6343 23.6727 21.0033 21.2804C19.3539 24.3679 19.9972 27.9547 21.7548 29.4553C20.5992 21.9036 32.0693 17.8167 24.9377 10.3477V10.3412L24.9376 10.341Z" fill="#FF4800"/>
</svg>
