<svg width="61" height="50" viewBox="0 0 61 50" fill="none" xmlns="http://www.w3.org/2000/svg">
<path d="M15.6184 0C17.276 0 18.8657 0.65848 20.0378 1.83058C21.2099 3.00269 21.8684 4.5924 21.8684 6.25C21.8684 7.9076 21.2099 9.49732 20.0378 10.6694C18.8657 11.8415 17.276 12.5 15.6184 12.5C13.9608 12.5 12.371 11.8415 11.1989 10.6694C10.0268 9.49732 9.36836 7.9076 9.36836 6.25C9.36836 4.5924 10.0268 3.00269 11.1989 1.83058C12.371 0.65848 13.9608 0 15.6184 0ZM8.58711 46.875V39.0625H6.84883C5.78438 39.0625 5.03242 38.0176 5.36446 37.002L8.40157 27.8809L5.6086 31.5723C4.56367 32.9492 2.60078 33.2129 1.2336 32.1777C-0.133591 31.1426 -0.407029 29.1797 0.628128 27.8027L6.38008 20.2148C8.56758 17.3242 11.9953 15.625 15.6184 15.625C19.2414 15.625 22.6691 17.3242 24.8566 20.2148L30.6086 27.8027C31.6535 29.1797 31.3801 31.1426 30.0031 32.1777C28.6262 33.2129 26.6633 32.9492 25.6281 31.5723L22.8352 27.8809L25.8723 37.002C26.2141 38.0176 25.4523 39.0625 24.3879 39.0625H22.6496V46.875C22.6496 48.6035 21.2531 50 19.5246 50C17.7961 50 16.3996 48.6035 16.3996 46.875V39.0625H14.8371V46.875C14.8371 48.6035 13.4406 50 11.7121 50C9.9836 50 8.58711 48.6035 8.58711 46.875ZM46.8684 0C48.526 0 50.1157 0.65848 51.2878 1.83058C52.4599 3.00269 53.1184 4.5924 53.1184 6.25C53.1184 7.9076 52.4599 9.49732 51.2878 10.6694C50.1157 11.8415 48.526 12.5 46.8684 12.5C45.2108 12.5 43.621 11.8415 42.4489 10.6694C41.2768 9.49732 40.6184 7.9076 40.6184 6.25C40.6184 4.5924 41.2768 3.00269 42.4489 1.83058C43.621 0.65848 45.2108 0 46.8684 0ZM46.0871 37.5V46.875C46.0871 48.6035 44.6906 50 42.9621 50C41.2336 50 39.8371 48.6035 39.8371 46.875V29.3457L38.5773 31.3477C37.6594 32.8125 35.7258 33.2422 34.2707 32.3242C32.8156 31.4062 32.3762 29.4727 33.2941 28.0176L38.343 20C40.0617 17.2754 43.0598 15.6152 46.2727 15.6152H47.4738C50.6965 15.6152 53.6945 17.2656 55.4035 20L60.4523 28.0273C61.3703 29.4922 60.9309 31.416 59.4758 32.334C58.0207 33.252 56.0871 32.8125 55.1691 31.3574L53.8996 29.3457V46.875C53.8996 48.6035 52.5031 50 50.7746 50C49.0461 50 47.6496 48.6035 47.6496 46.875V37.5H46.0871Z" fill="#FF4800"/>
</svg>
