<svg width="47" height="50" viewBox="0 0 47 50" fill="none" xmlns="http://www.w3.org/2000/svg">
<path d="M39.2866 32.143H28.5723V28.5715H39.2866V32.143ZM46.4294 46.4287H35.7151V42.8572H46.4294V46.4287ZM42.858 39.2858H32.1437V35.7144H42.858V39.2858Z" fill="#FF4800"/>
<path d="M23.2203 32.1429C23.2077 30.6361 22.8059 29.1582 22.0537 27.8525C21.3015 26.5469 20.2246 25.4578 18.9275 24.6911L32.1435 1.78571L29.0543 0L15.5239 23.4393C13.8634 23.0683 12.1363 23.1196 10.5007 23.5885C8.86514 24.0574 7.37321 24.9288 6.1614 26.1232C-0.524315 32.5714 -0.00645744 47.6464 0.0185426 48.2857C0.0370017 48.7468 0.233257 49.1829 0.566164 49.5025C0.89907 49.8221 1.34278 50.0004 1.80426 50H28.5739C28.9487 50 29.314 49.8821 29.618 49.6629C29.9221 49.4438 30.1495 49.1345 30.268 48.779C30.3865 48.4234 30.3901 48.0396 30.2784 47.6818C30.1666 47.3241 29.9452 47.0106 29.6453 46.7857C23.3239 42.0429 23.2203 32.2393 23.2203 32.1429ZM14.1614 26.7804C15.5906 26.7961 16.9588 27.3622 17.9812 28.361C19.0036 29.3598 19.6016 30.7144 19.6507 32.1429C19.6507 32.2107 19.6543 32.5143 19.681 32.9804L9.14533 28.2946C9.83933 27.7224 10.6402 27.2938 11.5013 27.0338C12.3624 26.7739 13.2667 26.6877 14.1614 26.7804ZM20.4471 46.4286C19.0198 44.9752 18.1099 43.0928 17.8578 41.0714H14.2864C14.4143 42.9719 15.0079 44.8117 16.015 46.4286H12.0453C11.311 44.1111 10.8642 41.7122 10.715 39.2857H7.14354C7.2587 41.7049 7.65726 44.1022 8.33104 46.4286H3.57211C3.62747 43.15 4.08997 35.9071 6.79176 31.1554L20.2435 37.1375C20.8898 40.4934 22.2678 43.6657 24.2793 46.4286H20.4471Z" fill="#FF4800"/>
</svg>
