<svg width="36" height="50" viewBox="0 0 36 50" fill="none" xmlns="http://www.w3.org/2000/svg">
<path d="M32.5157 0.000105938L23.6194 6.96936L35.1562 4.68694L32.5156 0L32.5157 0.000105938ZM19.5986 0.0961385L17.3137 9.79479L25.7977 0.0961385H19.5986ZM2.50104 0.563052L2.2683 1.22553C0.859577 5.20643 0 9.59944 0 13.743C0 19.4451 1.59996 23.62 4.28033 26.3432C6.29363 28.389 8.8762 29.5757 11.7065 30.0399C13.5297 35.1419 13.4284 40.7529 11.4436 45.81C8.19009 46.3518 5.02986 47.7489 2.25489 50H26.8585C24.0849 47.7497 20.9254 46.3555 17.6731 45.8131C15.6886 40.7587 15.587 35.1501 17.407 30.0497C20.2573 29.5931 22.8545 28.4047 24.8698 26.343C26.2901 24.8902 27.4002 23.0245 28.129 20.7352L19.1097 13.1399L13.6188 13.0241L19.1694 25.7039L13.8285 17.8933L5.40447 24.7269L12.1955 15.5116L10.463 12.9778L4.73262 11.2653L3.6883 10.9539L4.09739 9.94372L7.92861 0.563052H2.50104ZM10.0737 0.563052L6.35227 9.67873L11.5204 11.2256L15.0089 7.65462L13.1533 0.562946H10.0737V0.563052ZM28.6579 8.29081L19.9546 11.2587L28.6713 18.5989C28.9592 17.1245 29.1136 15.5076 29.1136 13.7433C29.1136 11.954 28.9526 10.1197 28.6579 8.29081Z" fill="#FF4800"/>
</svg>
