<svg width="51" height="50" viewBox="0 0 51 50" fill="none" xmlns="http://www.w3.org/2000/svg">
<path d="M5.6329 50C3.27179 50 1.59401 48.9472 0.59957 46.8417C-0.394875 44.7361 -0.152282 42.7796 1.32735 40.9722L16.744 22.2222V5.55556H13.9662C13.1792 5.55556 12.5199 5.28889 11.9885 4.75556C11.457 4.22222 11.1903 3.56296 11.1885 2.77778C11.1885 1.99074 11.4551 1.33148 11.9885 0.8C12.5218 0.268519 13.1811 0.00185185 13.9662 0H36.1885C36.9755 0 37.6357 0.266667 38.169 0.8C38.7023 1.33333 38.9681 1.99259 38.9662 2.77778C38.9662 3.56481 38.6996 4.225 38.1662 4.75833C37.6329 5.29167 36.9736 5.55741 36.1885 5.55556H33.4107V22.2222L48.8273 40.9722C50.3088 42.7778 50.5523 44.7343 49.5579 46.8417C48.5635 48.9491 46.8848 50.0019 44.5218 50H5.6329ZM11.1885 41.6667H38.9662L29.5218 30.5556H20.6329L11.1885 41.6667Z" fill="#FF4800"/>
</svg>
