<svg width="50" height="50" viewBox="0 0 50 50" fill="none" xmlns="http://www.w3.org/2000/svg">
<path d="M36.8421 1.22643e-08C38.8558 -0.000112162 40.7935 0.769277 42.2586 2.15075C43.7237 3.53222 44.6055 5.42133 44.7237 7.43158L44.7368 7.89474V34.2105H46.7105C48.4132 34.2105 49.8158 35.5053 49.9842 37.1632L50 37.5V42.1053C50.0001 44.119 49.2307 46.0566 47.8493 47.5217C46.4678 48.9869 44.5787 49.8687 42.5684 49.9868L42.1053 50H15.7895C13.7758 50.0001 11.8381 49.2307 10.373 47.8493C8.90788 46.4678 8.02603 44.5787 7.9079 42.5684L7.89474 42.1053V15.7895H3.28947C2.47511 15.7898 1.68956 15.4881 1.08483 14.9427C0.480096 14.3973 0.0991803 13.6469 0.0157896 12.8368L1.22643e-08 12.5V7.89474C-0.000112162 5.88102 0.769277 3.94338 2.15075 2.47826C3.53222 1.01314 5.42133 0.131296 7.43158 0.0131582L7.89474 1.22643e-08H36.8421ZM44.7368 39.4737H21.0526V42.1053C21.0526 43.0263 20.8947 43.9132 20.6053 44.7368H42.1053C42.8032 44.7368 43.4726 44.4596 43.9661 43.9661C44.4596 43.4726 44.7368 42.8032 44.7368 42.1053V39.4737ZM26.3158 23.6842H21.0526C20.3819 23.685 19.7368 23.9418 19.249 24.4022C18.7613 24.8627 18.4678 25.492 18.4285 26.1616C18.3892 26.8311 18.607 27.4905 19.0375 28.0048C19.468 28.5192 20.0787 28.8497 20.7447 28.9289L21.0526 28.9474H26.3158C26.9865 28.9466 27.6317 28.6898 28.1194 28.2293C28.6071 27.7689 28.9006 27.1396 28.9399 26.47C28.9792 25.8004 28.7614 25.1411 28.3309 24.6268C27.9004 24.1124 27.2897 23.7819 26.6237 23.7026L26.3158 23.6842ZM31.5789 13.1579H21.0526C20.3547 13.1579 19.6853 13.4352 19.1918 13.9287C18.6983 14.4222 18.4211 15.0915 18.4211 15.7895C18.4211 16.4874 18.6983 17.1568 19.1918 17.6503C19.6853 18.1438 20.3547 18.4211 21.0526 18.4211H31.5789C32.2769 18.4211 32.9462 18.1438 33.4398 17.6503C33.9333 17.1568 34.2105 16.4874 34.2105 15.7895C34.2105 15.0915 33.9333 14.4222 33.4398 13.9287C32.9462 13.4352 32.2769 13.1579 31.5789 13.1579ZM7.89474 5.26316C7.1968 5.26316 6.52745 5.54041 6.03393 6.03393C5.54041 6.52745 5.26316 7.1968 5.26316 7.89474V10.5263H7.89474V5.26316Z" fill="#FF4800"/>
</svg>
