<svg width="57" height="50" viewBox="0 0 57 50" fill="none" xmlns="http://www.w3.org/2000/svg">
<path d="M32.9972 36.3319C32.3852 34.6982 34.4018 33.4419 35.5961 34.558L35.7606 34.7359L43.444 44.0639C43.7666 44.4595 44.0023 44.9186 44.1355 45.4114C44.2687 45.9041 44.2966 46.4194 44.2172 46.9237C44.1379 47.4279 43.9531 47.9098 43.675 48.3378C43.3969 48.7658 43.0316 49.1304 42.6031 49.4078C42.1746 49.6851 41.6924 49.869 41.188 49.9475C40.6836 50.0259 40.1684 49.9972 39.6758 49.863C39.1833 49.7289 38.7246 49.4925 38.3296 49.1691C37.9346 48.8458 37.6123 48.4428 37.3835 47.9865L37.2379 47.6468L32.9972 36.3319ZM34.728 26.9339L34.9572 27.004L46.2747 31.2447C46.7522 31.4247 47.1864 31.7033 47.549 32.0623C47.9116 32.4213 48.1944 32.8528 48.3791 33.3284C48.5638 33.8041 48.6461 34.3134 48.6208 34.823C48.5954 35.3326 48.463 35.8312 48.232 36.2862C48.0011 36.7412 47.6769 37.1425 47.2805 37.4638C46.8841 37.7851 46.4244 38.0193 45.9314 38.151C45.4385 38.2828 44.9233 38.3091 44.4194 38.2284C43.9156 38.1477 43.4344 37.9617 43.0073 37.6826L42.6918 37.448L33.3639 29.7673C32.0159 28.662 33.1347 26.5645 34.728 26.9366V26.9339ZM56.6083 25.0036C56.6083 27.1307 54.802 28.7752 52.7261 28.6269L52.3784 28.5865L40.4596 26.5996C38.7558 26.3165 38.6614 23.9899 40.1738 23.4777L40.4596 23.4076L52.3784 21.4207C52.899 21.3337 53.4323 21.3612 53.9412 21.5014C54.4501 21.6416 54.9224 21.891 55.325 22.2323C55.7277 22.5736 56.0511 22.9986 56.2727 23.4777C56.4943 23.9568 56.6089 24.4784 56.6083 25.0063V25.0036ZM48.143 13.5458C49.2025 15.3791 48.4666 17.7003 46.6117 18.6142L46.2721 18.7625L34.9545 23.0032C33.3234 23.6152 32.0698 21.5986 33.1832 20.4043L33.3585 20.2398L42.6891 12.5564C43.0964 12.2211 43.5719 11.9785 44.0824 11.8457C44.593 11.7128 45.1264 11.6927 45.6454 11.7869C46.1645 11.881 46.6569 12.0872 47.0882 12.3909C47.5195 12.6947 47.8795 13.0888 48.143 13.5458ZM42.4546 0.48935C44.2824 1.54616 44.8082 3.90781 43.6759 5.62782L43.4413 5.94324L35.7606 15.2712C34.6552 16.6192 32.5578 15.5004 32.9298 13.9071L32.9972 13.6779L37.2379 2.35764C37.423 1.86371 37.7133 1.41601 38.0889 1.04568C38.4645 0.675344 38.9162 0.391267 39.4127 0.213203C39.9092 0.0351383 40.4385 -0.0326388 40.9638 0.014585C41.4891 0.0618087 41.9978 0.222899 42.4546 0.486654V0.48935ZM20.8412 34.7359C21.9466 33.388 24.044 34.5068 23.672 36.1001L23.6046 36.3292L19.3638 47.6495C19.1838 48.127 18.9053 48.5611 18.5462 48.9237C18.1872 49.2863 17.7558 49.5692 17.2801 49.7538C16.8044 49.9385 16.2952 50.0209 15.7855 49.9955C15.2759 49.9702 14.7773 49.8377 14.3223 49.6068C13.8673 49.3759 13.466 49.0516 13.1447 48.6552C12.8234 48.2588 12.5893 47.7992 12.4575 47.3062C12.3258 46.8132 12.2994 46.298 12.3801 45.7942C12.4608 45.2903 12.6468 44.8092 12.9259 44.382L13.1578 44.0666L20.8412 34.7359ZM23.4158 29.6029L23.2379 29.7673L13.9099 37.4507C13.5144 37.7734 13.0552 38.009 12.5625 38.1422C12.0697 38.2755 11.5544 38.3033 11.0502 38.224C10.5459 38.1446 10.0641 37.9599 9.63604 37.6817C9.20801 37.4036 8.84342 37.0384 8.56607 36.6098C8.28871 36.1813 8.1048 35.6991 8.02636 35.1948C7.94791 34.6904 7.97668 34.1751 8.1108 33.6826C8.24491 33.1901 8.48135 32.7313 8.80469 32.3364C9.12803 31.9414 9.53101 31.619 9.98734 31.3903L10.327 31.2447L21.6446 27.004C23.2757 26.392 24.5293 28.4086 23.4158 29.6029ZM3.87564 21.3802L4.22341 21.4207L16.1422 23.4076C17.846 23.6933 17.9404 26.0172 16.428 26.5295L16.1422 26.5996L4.22341 28.5865C3.71817 28.67 3.20098 28.6456 2.7058 28.5151C2.21061 28.3846 1.74864 28.1508 1.3502 27.8291C0.951756 27.5074 0.625859 27.1051 0.393899 26.6485C0.16194 26.192 0.0291636 25.6915 0.00428738 25.18C-0.0205888 24.6685 0.0629974 24.1576 0.249559 23.6807C0.43612 23.2038 0.721438 22.7717 1.08678 22.4129C1.45213 22.054 1.88923 21.7765 2.36941 21.5985C2.84959 21.4206 3.36198 21.3462 3.87294 21.3802H3.87564ZM13.5945 12.3245L13.9099 12.5591L23.2379 20.2398C24.5859 21.3452 23.4671 23.4426 21.8738 23.0706L21.6446 23.0032L10.327 18.7625C9.84956 18.5825 9.41539 18.3039 9.05281 17.9448C8.69022 17.5858 8.40738 17.1544 8.22271 16.6787C8.03803 16.203 7.95568 15.6938 7.98101 15.1841C8.00635 14.6745 8.1388 14.1759 8.36974 13.7209C8.60067 13.2659 8.92491 12.8647 9.32131 12.5434C9.71772 12.222 10.1774 11.9879 10.6703 11.8561C11.1633 11.7244 11.6785 11.698 12.1823 11.7787C12.6862 11.8594 13.1674 12.0454 13.5945 12.3245ZM19.2183 2.02065L19.3638 2.36034L23.6046 13.6779C24.2165 15.3117 22.2 16.5626 21.0057 15.4491L20.8412 15.2739L13.1578 5.94324C12.8351 5.54769 12.5995 5.08855 12.4663 4.59579C12.3331 4.10303 12.3052 3.58772 12.3846 3.08347C12.4639 2.57923 12.6487 2.09737 12.9268 1.66934C13.2049 1.24131 13.5701 0.876728 13.9987 0.599369C14.4272 0.32201 14.9094 0.138108 15.4138 0.0596619C15.9182 -0.0187843 16.4334 0.00998686 16.9259 0.144099C17.4185 0.27821 17.8772 0.514649 18.2722 0.837992C18.6671 1.16133 18.9895 1.56431 19.2183 2.02065ZM28.3009 2.08805C26.0579 2.08805 24.3486 4.10191 24.718 6.31798L26.7049 18.2368C27.0068 20.0403 29.5949 20.0403 29.8969 18.2368L31.8838 6.31798C31.9708 5.79757 31.9433 5.26446 31.8032 4.75576C31.6632 4.24705 31.414 3.77497 31.073 3.37236C30.732 2.96975 30.3073 2.64629 29.8286 2.42449C29.3498 2.20269 28.8285 2.08788 28.3009 2.08805ZM29.8969 31.7704C29.5949 29.9668 27.0068 29.9668 26.7049 31.7704L24.718 43.6892C24.6321 44.2091 24.6604 44.7414 24.801 45.2493C24.9415 45.7572 25.1909 46.2284 25.5318 46.6302C25.8727 47.032 26.2969 47.3548 26.7751 47.5762C27.2533 47.7976 27.7739 47.9123 28.3009 47.9123C28.8278 47.9123 29.3485 47.7976 29.8267 47.5762C30.3048 47.3548 30.7291 47.032 31.07 46.6302C31.4109 46.2284 31.6603 45.7572 31.8008 45.2493C31.9413 44.7414 31.9697 44.2091 31.8838 43.6892L29.8969 31.7704Z" fill="#FF4800"/>
</svg>
