<svg width="115" height="80" viewBox="0 0 115 80" fill="none" xmlns="http://www.w3.org/2000/svg">
<path d="M49.1984 0.0453644C47.7619 0.165512 46.1059 0.447868 44.8389 0.796303C43.9042 1.05463 42.2984 1.60732 42.2984 1.6734C42.2984 1.74549 42.4929 1.73347 42.8379 1.63735C43.0072 1.58929 43.3522 1.49318 43.6094 1.42709L44.0673 1.30695L44.036 1.47515C44.0109 1.57127 43.3836 2.95901 42.6372 4.55701C40.8934 8.28167 39.1746 11.9943 38.4596 13.5563C38.1522 14.2351 37.8448 14.8419 37.7821 14.9019C37.6818 15.0041 37.5814 15.0161 37.0294 15.0041C36.2077 14.9921 35.4989 15.0822 34.834 15.2984C34.0123 15.5568 31.7604 16.518 31.7604 16.6021C31.7604 16.6982 31.6725 16.6862 32.5444 16.7342C33.2094 16.7703 33.3411 16.8003 33.6359 16.9505L33.9683 17.1247L33.2972 17.2629C32.3939 17.4431 31.8984 17.6053 31.1958 17.9478C30.6501 18.2181 29.8786 18.7047 29.8786 18.7888C29.8786 18.8068 30.0793 18.7948 30.3239 18.7648C30.6313 18.7287 30.7881 18.7287 30.8383 18.7768C30.8759 18.8128 30.8947 18.8489 30.8759 18.8609C30.8634 18.8729 30.6564 19.0111 30.4243 19.1673C29.8723 19.5397 29.2513 20.0984 28.8875 20.543C28.6052 20.9035 28.0909 21.7806 28.1473 21.8286C28.1599 21.8406 28.4986 21.6904 28.9 21.4862L29.6277 21.1137L29.5775 21.4081C29.5524 21.5643 29.5336 22.0449 29.5398 22.4774C29.5461 23.1743 29.5649 23.3065 29.7218 23.709C29.8911 24.1535 30.0479 24.4479 30.2549 24.7122C30.3616 24.8444 30.3678 24.8324 30.6689 24.1595C30.8383 23.7811 30.9888 23.4687 31.0076 23.4687C31.0516 23.4687 32.7765 25.2529 32.8455 25.367C32.8769 25.4211 32.7013 25.8837 32.3437 26.6526C31.9109 27.5958 31.7729 27.8481 31.6976 27.8181C30.9324 27.4877 30.2863 27.4216 29.4018 27.5838C28.4359 27.758 27.9027 28.1665 27.4887 29.0436C27.0872 29.8907 26.9806 30.0649 26.667 30.4013C26.1652 30.942 25.9205 31.0501 23.3989 31.8552C20.1434 32.9005 19.3907 33.2729 18.1173 34.4925C16.9694 35.5858 16.2293 36.7753 15.6334 38.4814C15.2131 39.701 15.2068 39.6769 16.0599 40.0614C17.4336 40.6802 18.5313 40.9205 19.7482 40.8724C20.5888 40.8364 21.1219 40.7222 22.2071 40.3438C22.8908 40.1035 24.5217 39.3706 24.7601 39.1963C24.873 39.1122 24.8667 39.1062 24.666 39.0642C23.8819 38.92 23.5432 38.8299 23.5432 38.7578C23.5432 38.6376 23.7627 38.6076 24.6409 38.6076C26.0146 38.6076 27.1186 38.7638 29.0255 39.2204C31.6788 39.8512 32.5068 40.2717 33.5104 41.4672C34.2632 42.3623 34.7211 43.2754 35.0598 44.549C35.2668 45.318 35.4675 46.7298 35.386 46.8139C35.3609 46.8319 30.8446 46.8619 25.3497 46.8739C19.8549 46.886 14.9684 46.91 14.498 46.928C11.9701 47.0121 9.1286 47.7691 6.90808 48.9465C4.71265 50.112 2.81203 51.8061 1.64532 53.6384C-0.606569 57.1768 -0.543842 61.4301 1.81468 64.9085C3.68393 67.6659 6.87672 69.7986 10.6152 70.7838C11.9638 71.1383 13.8707 71.4086 15.0625 71.4086H15.5142V70.6337V69.8647L14.7113 69.8226C11.2927 69.6484 8.13752 68.5551 5.72255 66.7168C5.00746 66.1701 3.97247 65.1308 3.45184 64.4399C2.69285 63.4126 2.07813 62.079 1.79586 60.8294C1.63277 60.1145 1.63277 58.1981 1.79586 57.4712C2.2224 55.5608 3.19466 53.8967 4.73774 52.4429C5.49673 51.722 5.85427 51.4457 6.68854 50.905C8.22534 49.9137 10.264 49.1268 12.2273 48.7603C13.8958 48.4539 13.1996 48.4599 33.5794 48.4599C44.0171 48.4599 57.5724 48.4419 63.707 48.4179L74.8536 48.3818V47.6069V46.8379H61.6182C54.3419 46.8379 48.3829 46.8319 48.3829 46.8199C48.3829 46.8139 48.4268 46.6757 48.477 46.5135C48.5272 46.3513 48.5711 46.0629 48.5711 45.8767C48.5711 45.5403 48.5523 45.4982 48.1446 44.7713C47.9564 44.4349 47.9689 44.0624 48.1822 43.6239C48.615 42.7468 48.5648 41.8577 48.0505 41.2749L47.8874 41.0887L48.3578 40.524C49.1545 39.5688 49.098 39.7791 49.1231 37.5803C49.1356 36.517 49.1168 35.4356 49.0792 35.1232C49.0415 34.8108 49.0227 34.5525 49.029 34.5405C49.0917 34.4864 63.2429 39.719 63.5565 39.9112C63.6757 39.9833 63.6945 40.0374 63.6694 40.2116C63.638 40.3678 63.6506 40.4038 63.707 40.3618C63.7509 40.3318 64.0771 40.0975 64.4409 39.8391C66.8935 38.0849 68.6311 36.3608 70.1804 34.132C72.2504 31.1583 73.4422 28.1425 73.9189 24.6822C74.1385 23.0782 74.0632 20.2607 73.7496 18.4824C73.5488 17.359 73.1599 15.761 72.9027 15.0101C72.6707 14.3493 72.6393 14.175 72.633 13.7065C72.633 13.4061 72.6393 13.0817 72.6518 12.9855C72.6644 12.8834 72.6393 12.6551 72.5891 12.4629C72.4386 11.8441 72.6895 11.4056 73.3857 11.0872C73.6116 10.9851 74.8222 10.3122 76.083 9.5853C77.4881 8.78029 78.3788 8.29969 78.3976 8.34775C78.4101 8.38379 78.4854 8.70219 78.567 9.03861L78.7112 9.6634L80.1602 8.01734C80.9569 7.11621 81.6029 6.37128 81.5967 6.35927C81.5778 6.34124 77.5132 7.05613 77.3689 7.10419C77.3124 7.12222 77.4316 7.27841 77.7327 7.57278C77.9773 7.81909 78.1781 8.04136 78.1781 8.0714C78.1781 8.2276 77.8268 8.40783 75.4808 9.47115C72.5515 10.8048 72.4386 10.8529 72.2755 10.8529C72.2128 10.8529 72.0183 10.7207 71.8489 10.5585C71.5353 10.2581 71.2468 10.132 70.8704 10.132C70.5756 10.132 70.3686 9.95776 69.8919 9.31496C68.123 6.948 66.191 5.15776 63.7509 3.62585C60.6836 1.70945 57.6351 0.604057 54.1224 0.153496C53.031 0.0153198 50.2773 -0.0507584 49.1984 0.0453644ZM51.8078 0.850372C56.2739 1.30093 60.5582 3.01909 64.1273 5.80057C64.9302 6.42535 66.4294 7.85513 67.1005 8.63611C67.5961 9.21884 68.7063 10.6727 68.7063 10.7387C68.7063 10.7628 68.4492 10.985 68.1355 11.2314C67.8282 11.4837 67.2009 12.0123 66.743 12.4088C65.5826 13.4121 64.9427 13.9167 64.2465 14.3673C63.6945 14.7277 62.0322 15.5207 60.0689 16.3558C58.8018 16.8964 58.2373 17.2389 56.6942 18.3863C56.1798 18.7708 55.3456 19.3535 54.85 19.6719L53.9405 20.2546L54.5489 20.2727C55.1198 20.2907 55.2954 20.3448 55.057 20.4289C55.0006 20.4529 54.3294 20.519 53.5641 20.5851C51.1993 20.7893 49.5998 21.0296 48.4833 21.336C47.2099 21.6964 45.9868 22.4654 45.0208 23.5287C44.3245 24.2917 44.1112 24.3638 44.2743 23.769C44.3245 23.5888 44.3684 23.4206 44.3684 23.3966C44.3684 23.3785 44.0171 23.5107 43.5843 23.6909C43.1264 23.8892 42.7752 24.0033 42.7438 23.9733C42.6873 23.9192 42.173 22.2852 42.173 22.177C42.173 22.141 42.3423 22.0148 42.5493 21.8827C42.7563 21.7565 42.9445 21.6304 42.9571 21.6003C42.9947 21.5523 42.3549 20.8194 41.7715 20.2366C41.4077 19.8762 41.2948 19.8582 40.7867 20.0444C40.2222 20.2607 40.1846 20.2006 40.5735 19.6899C41.0815 19.0351 41.0878 18.8369 40.6299 17.7615C40.1406 16.6021 39.3628 15.7009 38.5098 15.2984C38.1898 15.1483 38.102 15.0762 38.1271 14.9981C38.1459 14.944 39.068 12.9495 40.172 10.5765C41.276 8.20357 42.6685 5.21783 43.2519 3.94424C43.8415 2.67065 44.3684 1.57127 44.4186 1.49317C44.6068 1.21683 45.0647 1.09668 46.6266 0.910446C47.7494 0.784286 47.7619 0.784286 49.4054 0.772278C50.3776 0.766266 51.2119 0.790298 51.8078 0.850372ZM71.5416 16.6682C72.357 19.6599 72.495 20.531 72.495 22.8078C72.495 24.0574 72.4699 24.6401 72.3821 25.2108C71.6796 30.0229 69.8856 33.8917 66.743 37.3761C65.9652 38.2411 64.8487 39.2744 64.535 39.4186C64.3531 39.5027 64.1587 39.5388 63.845 39.5328C63.4373 39.5328 63.293 39.4907 61.8064 38.914C59.9183 38.1811 58.2875 37.5743 53.8401 35.9523C49.2548 34.2822 49.2423 34.2762 49.1105 34.168C48.9475 34.0299 48.8785 33.8256 48.9412 33.6634C48.9725 33.5913 49.1733 33.3991 49.3865 33.2309C50.1079 32.6782 50.8293 31.765 51.4628 30.5996C51.8643 29.8727 52.2218 29.5002 52.9306 29.0917C54.2855 28.3047 55.1323 27.4516 56.3868 25.6194C58.4066 22.6637 59.5483 21.6424 61.8064 20.7953C62.9919 20.3508 64.1148 19.738 64.9177 19.1012C65.1309 18.927 65.6265 18.5004 66.0154 18.152C66.7493 17.4912 67.3514 17.0346 67.9536 16.6802C68.2798 16.4879 71.021 15.1242 71.09 15.1182C71.1088 15.1182 71.3095 15.8151 71.5416 16.6682ZM34.3133 26.3883C34.7336 26.7007 34.9971 26.965 35.3295 27.4156L35.4675 27.6138L35.1351 27.8181C34.6709 28.1005 34.558 28.2386 34.5517 28.521C34.5517 28.6471 34.5454 28.7553 34.5329 28.7553C34.5203 28.7553 34.0123 28.563 33.3975 28.3348C32.5194 28.0043 32.2685 27.8842 32.2434 27.7881C32.212 27.6799 32.7075 26.4904 33.0525 25.8597L33.1466 25.6854L33.5042 25.8717C33.6986 25.9798 34.0624 26.2141 34.3133 26.3883ZM32.4127 28.3047C32.7452 28.3888 33.5167 28.7433 33.5167 28.8154C33.5167 28.8334 33.1592 28.9355 32.7201 29.0376C31.5283 29.332 30.004 30.0349 29.0945 30.7197C28.7558 30.972 28.5174 31.2484 27.5451 32.4619C27.0182 33.1227 26.5541 33.5373 26.391 33.4772C26.3157 33.4471 26.3784 33.327 26.7109 32.8644C26.943 32.552 27.1186 32.2817 27.1061 32.2757C27.0998 32.2637 26.874 32.2817 26.6168 32.3117C25.908 32.3958 25.1615 32.6602 23.6059 33.3751C21.5736 34.3182 21.1031 34.4324 21.5673 33.8977C21.7241 33.7115 21.9625 33.5493 22.3388 33.363C23.286 32.8945 25.1176 32.0834 25.8954 31.7891C27.3695 31.2304 27.796 30.9781 28.7181 30.137C29.0631 29.8246 29.5712 29.4341 29.8472 29.2659C30.1232 29.1037 30.4933 28.8754 30.6626 28.7493C31.0516 28.4789 31.3087 28.3528 31.6161 28.2807C31.9611 28.2026 32.0113 28.2026 32.4127 28.3047ZM39.8019 36.6852C40.0026 36.8354 40.8745 38.5175 41.2572 39.4907C41.7715 40.8064 42.1604 42.4404 42.2984 43.8942C42.3674 44.6632 42.38 46.0389 42.3235 46.5195L42.2796 46.8379H41.9409H41.6022L41.6524 46.4594C41.7966 45.36 41.6022 43.1613 41.1944 41.2809C40.9812 40.3197 40.4605 38.8359 39.965 37.7665C39.5008 36.7633 39.4318 36.565 39.5573 36.565C39.6075 36.565 39.7204 36.6191 39.8019 36.6852Z" fill="#FF4800"/>
<path d="M101.01 51.17C100.414 51.23 99.473 51.5184 98.921 51.8068C98.5133 52.029 97.5473 52.6719 97.5849 52.7079C97.5912 52.7199 97.7605 52.6719 97.955 52.6118C99.0464 52.2513 100.571 52.1672 101.543 52.4135C105.143 53.3387 106.63 57.2135 104.729 60.7339C103.977 62.1277 102.766 63.3772 101.135 64.4346C98.1306 66.387 94.229 67.8168 90.064 68.4896C88.1069 68.802 87.4044 68.8501 84.9518 68.8561C82.7124 68.8561 81.897 68.808 80.4982 68.5918C80.31 68.5617 80.1469 68.5437 80.1343 68.5557C80.103 68.5797 81.3952 69.1745 81.9722 69.3968C83.2456 69.8894 85.0333 70.3159 86.8022 70.5502C88.0818 70.7184 91.2746 70.7004 92.6671 70.5202C95.5965 70.1417 98.1306 69.4148 100.552 68.2553C104.968 66.1467 107.533 63.3712 108.198 59.965C108.336 59.2501 108.343 57.9224 108.205 57.1955C107.828 55.201 106.737 53.4588 105.131 52.2994C103.945 51.4403 102.415 51.0198 101.01 51.17Z" fill="#FF4800"/>
<g filter="url(#filter0_b_79_1317)">
<path d="M13.7454 52.996C12.7982 53.2243 11.8824 53.9272 11.4684 54.7382C11.3869 54.9004 11.1799 55.4951 11.0168 56.0598C10.653 57.3214 10.6216 57.808 10.8851 58.2826C11.0983 58.6671 11.4496 58.9915 11.8448 59.1597C12.0894 59.2679 12.3278 59.3039 12.9049 59.3339C13.6262 59.37 13.6576 59.382 13.8081 59.5442C13.9524 59.7124 13.9587 59.7485 13.9273 60.2651C13.8834 60.962 13.5886 61.9172 13.3502 62.1575C13.0491 62.4578 12.8359 62.5179 12.0706 62.5179C11.412 62.5179 11.3618 62.5119 11.2175 62.3677C11.1171 62.2776 11.0607 62.1575 11.0607 62.0313C11.0607 61.8811 11.3869 60.6075 11.5311 60.187C11.55 60.1329 11.3618 60.1149 10.722 60.1149H9.88771L9.64307 60.968C9.43607 61.6889 9.39844 61.9172 9.39844 62.3978C9.39844 63.0406 9.4988 63.2929 9.88143 63.6413C10.2515 63.9837 10.6279 64.0979 11.4371 64.1279C12.309 64.158 12.7669 64.0859 13.3502 63.8155C13.9273 63.5572 14.3852 63.1968 14.7427 62.7402C15.1191 62.2476 15.1944 62.0794 15.5331 60.8298C15.8844 59.5802 15.8969 59.3219 15.646 58.8113C15.2885 58.0904 14.5232 57.7119 13.4129 57.7119C12.6163 57.7119 12.5348 57.6458 12.5348 57.0391C12.541 56.5585 12.8108 55.4351 13.0115 55.0566C13.0805 54.9244 13.2373 54.7742 13.4004 54.6781C13.645 54.5459 13.7391 54.5279 14.3413 54.5279C14.956 54.5279 15.0187 54.5399 15.1881 54.6781C15.4767 54.9064 15.4767 55.0446 15.2257 55.9517C15.1003 56.4023 14.9874 56.8048 14.9686 56.8528C14.9435 56.9129 15.1003 56.9309 15.7777 56.9309H16.6245L16.888 56.0118C17.2016 54.9004 17.2267 54.4258 16.9946 53.9572C16.8065 53.5667 16.5054 53.2844 16.0788 53.0921C15.7715 52.96 15.6397 52.9359 14.9184 52.9239C14.3664 52.9119 13.99 52.9359 13.7454 52.996Z" fill="#FF4800"/>
</g>
<g filter="url(#filter1_b_79_1317)">
<path d="M21.4913 52.9906C20.8766 53.1348 20.3434 53.4351 19.8416 53.9218C19.5781 54.1741 19.2896 54.5225 19.1955 54.6907C19.0763 54.901 18.6122 56.481 17.7653 59.4967C17.0816 61.9658 16.5171 64.0204 16.5171 64.0624C16.5171 64.1225 16.7178 64.1405 17.3325 64.1405H18.1417L18.2044 63.9122C18.2421 63.7921 18.5369 62.7228 18.8631 61.5393C19.1955 60.3498 19.4652 59.3706 19.4652 59.3586C19.4652 59.3465 20.0298 59.3345 20.726 59.3345C21.8928 59.3345 21.9806 59.3405 21.9492 59.4367C21.8739 59.689 20.657 64.0805 20.657 64.1105C20.657 64.1285 21.0334 64.1345 21.485 64.1285L22.3193 64.1105L23.5613 59.6649C24.9789 54.6126 24.9915 54.5706 24.6527 53.9157C24.2826 53.1948 23.6491 52.9005 22.4824 52.9125C22.1186 52.9125 21.6669 52.9485 21.4913 52.9906ZM22.9089 54.6847C23.1787 54.901 23.1661 55.1052 22.7647 56.511L22.4385 57.6825L21.2028 57.7005C20.287 57.7125 19.9671 57.6945 19.9671 57.6464C19.9671 57.5082 20.6069 55.2795 20.6884 55.1293C20.7323 55.0452 20.839 54.919 20.9205 54.8469C21.2153 54.5826 21.4098 54.5285 22.0809 54.5285C22.6768 54.5285 22.7333 54.5405 22.9089 54.6847Z" fill="#FF4800"/>
</g>
<path d="M21.0974 54.9907C20.9218 55.1409 20.8653 55.2911 20.5893 56.2703C20.42 56.8831 20.282 57.3997 20.282 57.4237C20.282 57.4538 20.3322 57.4718 20.3949 57.4718C20.489 57.4718 20.558 57.2796 20.8152 56.3484C20.9971 55.6996 21.179 55.1469 21.2668 55.0267C21.4362 54.7864 21.3546 54.7684 21.0974 54.9907Z" fill="#FF4800"/>
<path d="M21.5989 54.9907C21.4233 55.1409 21.3668 55.2911 21.0908 56.2703C20.9214 56.8831 20.7834 57.3997 20.7834 57.4237C20.7834 57.4538 20.8336 57.4718 20.8964 57.4718C20.9904 57.4718 21.0594 57.2796 21.3166 56.3484C21.4985 55.6996 21.6804 55.1469 21.7683 55.0267C21.9376 54.7864 21.8561 54.7684 21.5989 54.9907Z" fill="#FF4800"/>
<g filter="url(#filter2_b_79_1317)">
<path d="M25.595 58.4454C24.7419 61.4972 24.0457 64.0264 24.0457 64.0624C24.0457 64.1225 24.2527 64.1405 24.8611 64.1405H25.6703L25.7267 63.9423C25.7581 63.8402 26.1721 62.3383 26.6488 60.6141C27.1318 58.884 27.5395 57.4962 27.5646 57.5203C27.5834 57.5443 27.7214 58.914 27.8657 60.5661C28.01 62.2181 28.148 63.696 28.1668 63.8522L28.2044 64.1405H29.0261H29.8541L31.4035 58.5956C32.2566 55.5498 32.9528 53.0206 32.9528 52.9786C32.9528 52.9245 32.7458 52.9065 32.1374 52.9065H31.3282L31.2655 53.1288C31.2279 53.2549 30.8201 54.7207 30.3497 56.3908C29.8855 58.0609 29.4778 59.4787 29.4464 59.5448C29.39 59.6529 29.3837 59.6409 29.3837 59.4847C29.3774 59.3826 29.252 57.8867 29.0951 56.1505C28.9383 54.4144 28.8129 52.9786 28.8129 52.9485C28.8129 52.9245 28.4365 52.9065 27.9786 52.9065H27.1443L25.595 58.4454Z" fill="#FF4800"/>
</g>
<path d="M29.0811 53.1585C29.0999 53.3026 29.2065 54.4801 29.3194 55.7717C29.4323 57.0694 29.5453 58.1327 29.5703 58.1327C29.7209 58.1327 29.7146 57.562 29.5202 55.4053C29.4135 54.1437 29.3194 53.0684 29.3194 53.0083C29.3132 52.9422 29.263 52.9062 29.1814 52.9062C29.056 52.9062 29.0497 52.9302 29.0811 53.1585Z" fill="#FF4800"/>
<path d="M29.583 53.1584C29.6018 53.3026 29.6834 54.1797 29.7587 55.1108C29.8402 56.048 29.9218 56.8109 29.9468 56.8109C29.9657 56.8109 30.0096 56.6968 30.0409 56.5586C30.0786 56.3784 30.0535 55.8017 29.9594 54.7083C29.8841 53.8312 29.8214 53.0683 29.8214 53.0082C29.8151 52.9421 29.7649 52.9061 29.6834 52.9061C29.5579 52.9061 29.5517 52.9301 29.583 53.1584Z" fill="#FF4800"/>
<path d="M33.2355 52.9786C33.2041 53.0567 30.2371 63.6659 30.1618 63.9723C30.1242 64.1105 30.1368 64.1405 30.2371 64.1405C30.3375 64.1405 30.5445 63.4497 31.8806 58.6737C32.7211 55.6639 33.4236 53.1348 33.4425 53.0567C33.4613 52.9485 33.4425 52.9065 33.3672 52.9065C33.3107 52.9065 33.248 52.9425 33.2355 52.9786Z" fill="#FF4800"/>
<path d="M33.7366 52.9786C33.6864 53.1047 30.6316 64.0444 30.6316 64.0925C30.6316 64.1225 30.6818 64.1405 30.7445 64.1405C30.8386 64.1405 31.0895 63.2935 32.4068 58.5956C33.2598 55.5498 33.9561 53.0206 33.9561 52.9786C33.9561 52.9425 33.9122 52.9065 33.862 52.9065C33.8056 52.9065 33.7491 52.9425 33.7366 52.9786Z" fill="#FF4800"/>
<g filter="url(#filter3_b_79_1317)">
<path d="M34.8096 52.9633C34.7908 53.0236 34.0945 55.5146 33.2665 58.5003C32.4385 61.4859 31.7423 63.977 31.7235 64.0312C31.6921 64.1338 31.7611 64.1398 32.5264 64.1398H33.3669L34.0255 61.7392L34.6904 59.3447L35.6501 59.3266L36.6099 59.3085L36.7855 59.4714C36.8796 59.5618 36.98 59.7066 36.9988 59.7971C37.0239 59.9056 36.8545 60.6113 36.5032 61.884C36.2084 62.9395 35.9512 63.8865 35.9261 63.977L35.8885 64.1458L36.7228 64.1277L37.557 64.1097L38.0526 62.3605C38.4478 60.9551 38.5481 60.4967 38.5795 60.0323C38.6234 59.3145 38.5105 58.9104 38.1906 58.6692L37.9899 58.5123L38.3725 58.2651C38.8178 57.9755 39.3322 57.3302 39.5392 56.7933C39.6458 56.5219 40.4362 53.8258 40.6369 53.0236L40.6808 52.8547L39.8466 52.8728L39.006 52.8909L38.4289 54.9658C38.109 56.1057 37.8017 57.107 37.7515 57.1854C37.695 57.2638 37.5194 57.4086 37.3563 57.5111C37.0678 57.686 37.0615 57.686 36.1018 57.686C35.3302 57.686 35.1421 57.6679 35.1672 57.6076C35.2299 57.4508 36.4656 52.9995 36.4656 52.9331C36.4656 52.8788 36.2272 52.8608 35.6564 52.8608C34.9351 52.8608 34.841 52.8728 34.8096 52.9633Z" fill="#FF4800"/>
</g>
<path d="M36.747 52.9775C36.7282 53.0195 36.4397 54.0528 36.0947 55.2663C35.5301 57.3029 35.4862 57.4771 35.6054 57.4591C35.7183 57.441 35.8061 57.1707 36.3519 55.2483C36.6906 54.0408 36.9666 53.0195 36.9666 52.9775C36.9666 52.9414 36.9227 52.9054 36.8725 52.9054C36.816 52.9054 36.7596 52.9414 36.747 52.9775Z" fill="#FF4800"/>
<path d="M37.2495 52.9775C37.2307 53.0195 36.9421 54.0528 36.5971 55.2663C36.0326 57.3029 35.9887 57.4771 36.1079 57.4591C36.2208 57.441 36.3086 57.1707 36.8543 55.2483C37.193 54.0408 37.469 53.0195 37.469 52.9775C37.469 52.9414 37.4251 52.9054 37.3749 52.9054C37.3185 52.9054 37.262 52.9414 37.2495 52.9775Z" fill="#FF4800"/>
<path d="M40.423 54.7504C39.8083 56.9491 39.6013 57.4177 39.0116 57.9764C38.8046 58.1807 38.5725 58.3729 38.5036 58.415C38.4032 58.469 38.4032 58.487 38.4785 58.487C38.6792 58.4991 39.2625 58.0305 39.5824 57.6039C39.9902 57.0573 40.0717 56.841 40.6363 54.8585C41.251 52.6958 41.2071 52.9061 41.0628 52.9061C40.9562 52.9061 40.8746 53.1404 40.423 54.7504Z" fill="#FF4800"/>
<path d="M40.9242 54.7504C40.3095 56.9491 40.1025 57.4177 39.5129 57.9764C39.3059 58.1807 39.0738 58.3729 39.0048 58.415C38.9044 58.469 38.9044 58.487 38.9797 58.487C39.1804 58.4991 39.7638 58.0305 40.0837 57.6039C40.4914 57.0573 40.5729 56.841 41.1375 54.8585C41.7522 52.6958 41.7083 52.9061 41.564 52.9061C41.4574 52.9061 41.3758 53.1404 40.9242 54.7504Z" fill="#FF4800"/>
<g filter="url(#filter4_b_79_1317)">
<path d="M44.3748 52.9966C43.3711 53.2669 42.5243 53.9278 42.0664 54.7928C41.941 55.0271 39.4131 63.8942 39.4131 64.0985C39.4131 64.1225 39.7832 64.1345 40.2411 64.1285L41.0628 64.1105L41.7277 61.7255L42.3926 59.3345H43.6346C44.312 59.3345 44.8703 59.3586 44.8703 59.3886C44.8703 59.4366 43.666 63.7801 43.5781 64.0324C43.5468 64.1345 43.6032 64.1405 44.3873 64.1405H45.2278L46.4949 59.5868C47.4233 56.2467 47.7557 54.949 47.7557 54.7027C47.7557 54.0059 47.3668 53.4171 46.7019 53.1047C46.3757 52.9545 46.2817 52.9365 45.5289 52.9245C44.9518 52.9125 44.6131 52.9365 44.3748 52.9966ZM45.7422 54.6186C45.8426 54.6667 45.9555 54.7868 45.9994 54.889C46.0747 55.0572 46.0433 55.2014 45.7171 56.3908L45.3533 57.7125H44.1113C43.4213 57.7125 42.8631 57.6945 42.8631 57.6764C42.8631 57.6524 43.0199 57.0817 43.2143 56.3968C43.5907 55.0632 43.6973 54.8589 44.105 54.6487C44.3999 54.4985 45.4662 54.4805 45.7422 54.6186Z" fill="#FF4800"/>
</g>
<path d="M44.0044 54.9967C43.9041 55.0868 43.8037 55.213 43.7849 55.2791C43.7661 55.3451 43.6343 55.8197 43.4901 56.3304C43.3458 56.841 43.2203 57.3096 43.2015 57.3637C43.1764 57.4418 43.2015 57.4718 43.2956 57.4718C43.3897 57.4718 43.4399 57.4117 43.4901 57.2135C43.8978 55.7416 44.086 55.1349 44.1926 54.9967C44.3494 54.7804 44.2491 54.7804 44.0044 54.9967Z" fill="#FF4800"/>
<path d="M44.5069 54.9967C44.4065 55.0868 44.3061 55.213 44.2873 55.2791C44.2685 55.3451 44.1368 55.8197 43.9925 56.3304C43.8482 56.841 43.7228 57.3096 43.704 57.3637C43.6789 57.4418 43.704 57.4718 43.798 57.4718C43.8921 57.4718 43.9423 57.4117 43.9925 57.2135C44.4002 55.7416 44.5884 55.1349 44.695 54.9967C44.8519 54.7804 44.7515 54.7804 44.5069 54.9967Z" fill="#FF4800"/>
<g filter="url(#filter5_b_79_1317)">
<path d="M50.0447 52.9786C49.9945 53.1047 46.9397 64.0444 46.9397 64.0985C46.9397 64.1225 47.3098 64.1345 47.7677 64.1285L48.5957 64.1105L49.7561 59.9473C50.3959 57.6644 50.9354 55.7901 50.9542 55.7901C50.973 55.7901 51.2804 56.6552 51.6442 57.7125C52.0017 58.7698 52.3216 59.6349 52.3467 59.6349C52.3718 59.6349 53.1747 58.7698 54.1344 57.7125C55.0942 56.6612 55.8845 55.8201 55.8971 55.8442C55.9033 55.8742 55.4078 57.7185 54.7805 59.9413C54.1595 62.1701 53.6514 64.0204 53.6514 64.0624C53.6514 64.1225 53.8522 64.1405 54.4669 64.1405H55.2761L55.3388 63.9122C55.6963 62.6206 58.3685 53.0927 58.3936 53.0146C58.4249 52.9125 58.3622 52.9065 57.5907 52.9065H56.7564L54.9687 54.883C53.9839 55.9703 53.1622 56.8654 53.1371 56.8654C53.1183 56.8714 52.7921 55.9883 52.4157 54.901L51.7257 52.9365L50.8977 52.9185C50.2705 52.9065 50.0635 52.9245 50.0447 52.9786Z" fill="#FF4800"/>
</g>
<path d="M52.1841 53.3386C52.2657 53.5789 52.5354 54.3659 52.78 55.0808C53.1815 56.2763 53.3446 56.6187 53.3383 56.2523C53.3383 56.1802 53.0874 55.4052 52.7863 54.5281C52.3849 53.3687 52.203 52.9301 52.1277 52.9181C52.0399 52.9001 52.0461 52.9542 52.1841 53.3386Z" fill="#FF4800"/>
<path d="M53.0558 54.4378C53.3444 55.2849 53.5953 55.9938 53.6141 56.0118C53.6329 56.0298 53.6706 55.9998 53.6957 55.9397C53.7584 55.7775 52.761 52.942 52.6356 52.9179C52.554 52.9059 52.6544 53.2544 53.0558 54.4378Z" fill="#FF4800"/>
<path d="M58.6453 53.0086C58.6265 53.0687 57.9302 55.5498 57.1023 58.5235C56.2743 61.4972 55.578 63.9783 55.5592 64.0324C55.5341 64.1105 55.5592 64.1405 55.6533 64.1405C55.7474 64.1405 55.7975 64.0805 55.8415 63.9122C56.199 62.6206 58.8711 53.0927 58.8962 53.0146C58.9213 52.9365 58.8962 52.9065 58.8021 52.9065C58.7331 52.9065 58.6642 52.9545 58.6453 53.0086Z" fill="#FF4800"/>
<path d="M59.1466 53.0086C59.1277 53.0687 58.4315 55.5498 57.6035 58.5235C56.7755 61.4972 56.0792 63.9783 56.0604 64.0324C56.0353 64.1105 56.0604 64.1405 56.1545 64.1405C56.2486 64.1405 56.2988 64.0805 56.3427 63.9122C56.7002 62.6206 59.3724 53.0927 59.3975 53.0146C59.4225 52.9365 59.3975 52.9065 59.3034 52.9065C59.2344 52.9065 59.1654 52.9545 59.1466 53.0086Z" fill="#FF4800"/>
<g filter="url(#filter6_b_79_1317)">
<path d="M59.2166 58.4454C58.3635 61.4972 57.6672 64.0264 57.6672 64.0624C57.6672 64.1225 57.8742 64.1405 58.4827 64.1405H59.2919L59.3546 63.9122C59.7121 62.6206 62.3843 53.0927 62.4094 53.0146C62.4407 52.9125 62.378 52.9065 61.6065 52.9065H60.7659L59.2166 58.4454Z" fill="#FF4800"/>
</g>
<path d="M62.659 53.0086C62.6402 53.0687 61.9439 55.5498 61.1159 58.5235C60.2879 61.4972 59.5917 63.9783 59.5729 64.0324C59.5478 64.1105 59.5729 64.1405 59.6669 64.1405C59.761 64.1405 59.8112 64.0805 59.8551 63.9122C60.2127 62.6206 62.8848 53.0927 62.9099 53.0146C62.935 52.9365 62.9099 52.9065 62.8158 52.9065C62.7468 52.9065 62.6778 52.9545 62.659 53.0086Z" fill="#FF4800"/>
<path d="M63.161 53.0086C63.1421 53.0687 62.4459 55.5498 61.6179 58.5235C60.7899 61.4972 60.0936 63.9783 60.0748 64.0324C60.0497 64.1105 60.0748 64.1405 60.1689 64.1405C60.263 64.1405 60.3132 64.0805 60.3571 63.9122C60.7146 62.6206 63.3868 53.0927 63.4119 53.0146C63.437 52.9365 63.4119 52.9065 63.3178 52.9065C63.2488 52.9065 63.1798 52.9545 63.161 53.0086Z" fill="#FF4800"/>
<g filter="url(#filter7_b_79_1317)">
<path d="M64.0641 53.6387C63.9512 54.0472 63.8445 54.4137 63.8257 54.4497C63.8069 54.5098 64.0327 54.5278 64.8419 54.5278C65.4127 54.5278 65.8831 54.5458 65.8831 54.5699C65.8831 54.5879 65.3061 56.6785 64.6035 59.2077C63.8947 61.7368 63.2988 63.8875 63.2737 63.9776L63.2361 64.1458L64.0703 64.1278L64.9046 64.1098L66.2281 59.3338L67.5579 54.5579L68.6118 54.5278L69.6656 54.4978L69.8788 53.7769C69.9917 53.3804 70.0858 53.0199 70.0858 52.9779C70.0858 52.9238 69.4648 52.9058 67.1816 52.9058H64.2773L64.0641 53.6387Z" fill="#FF4800"/>
</g>
<path d="M70.3819 52.9477C70.338 53.0198 69.9617 54.3775 69.9617 54.4616C69.9617 54.5036 70.0119 54.5277 70.0683 54.5156C70.1436 54.5036 70.2314 54.2994 70.3819 53.7767C70.4948 53.3802 70.5889 53.0198 70.5889 52.9777C70.5889 52.8996 70.4258 52.8756 70.3819 52.9477Z" fill="#FF4800"/>
<path d="M70.8834 52.9477C70.8395 53.0198 70.4631 54.3775 70.4631 54.4616C70.4631 54.5036 70.5133 54.5277 70.5698 54.5156C70.645 54.5036 70.7329 54.2994 70.8834 53.7767C70.9963 53.3802 71.0904 53.0198 71.0904 52.9777C71.0904 52.8996 70.9273 52.8756 70.8834 52.9477Z" fill="#FF4800"/>
<g filter="url(#filter8_b_79_1317)">
<path d="M71.9432 53.0086C71.9243 53.0687 71.2281 55.5498 70.4001 58.5235C69.5721 61.4972 68.8758 63.9783 68.857 64.0324C68.8256 64.1345 68.8946 64.1405 69.6599 64.1405H70.5004L71.1591 61.7495L71.824 59.3646L73.0911 59.3465C74.2829 59.3345 74.3581 59.3405 74.3268 59.4366C74.2452 59.6769 73.0346 64.0504 73.0346 64.0985C73.0346 64.1225 73.4047 64.1345 73.8626 64.1285L74.6906 64.1105L76.2462 58.5535C77.0993 55.4957 77.8018 52.9726 77.8018 52.9485C77.8018 52.9245 77.4255 52.9125 76.9738 52.9185L76.1396 52.9365L75.4747 55.3095L74.8098 57.6825L73.5427 57.7005C72.5014 57.7125 72.2756 57.7005 72.3007 57.6344C72.3634 57.4782 73.5991 53.0447 73.5991 52.9786C73.5991 52.9245 73.3608 52.9065 72.79 52.9065C72.0686 52.9065 71.9745 52.9185 71.9432 53.0086Z" fill="#FF4800"/>
</g>
<path d="M73.8813 52.9775C73.8625 53.0195 73.574 54.0528 73.229 55.2663C72.6644 57.3029 72.6205 57.4771 72.7397 57.4591C72.8526 57.441 72.9404 57.1707 73.4861 55.2483C73.8249 54.0408 74.1009 53.0195 74.1009 52.9775C74.1009 52.9414 74.057 52.9054 74.0068 52.9054C73.9503 52.9054 73.8939 52.9414 73.8813 52.9775Z" fill="#FF4800"/>
<path d="M74.383 52.9775C74.3642 53.0195 74.0757 54.0528 73.7307 55.2663C73.1661 57.3029 73.1222 57.4771 73.2414 57.4591C73.3543 57.441 73.4421 57.1707 73.9879 55.2483C74.3266 54.0408 74.6026 53.0195 74.6026 52.9775C74.6026 52.9414 74.5587 52.9054 74.5085 52.9054C74.452 52.9054 74.3956 52.9414 74.383 52.9775Z" fill="#FF4800"/>
<path d="M76.5286 58.4452C75.6755 61.497 74.9792 64.0262 74.9792 64.0682C74.9792 64.1163 75.0294 64.1403 75.0859 64.1283C75.1674 64.1163 75.5124 62.9688 76.7481 58.5533C77.6012 55.4955 78.3038 52.9783 78.3038 52.9483C78.3038 52.9243 78.2536 52.9062 78.1909 52.9062C78.0968 52.9062 77.8584 53.6992 76.5286 58.4452Z" fill="#FF4800"/>
<path d="M77.0301 58.4452C76.177 61.497 75.4807 64.0262 75.4807 64.0682C75.4807 64.1163 75.5309 64.1403 75.5873 64.1283C75.6689 64.1163 76.0139 62.9688 77.2496 58.5533C78.1027 55.4955 78.8052 52.9783 78.8052 52.9483C78.8052 52.9243 78.755 52.9062 78.6923 52.9062C78.5982 52.9062 78.3599 53.6992 77.0301 58.4452Z" fill="#FF4800"/>
<g filter="url(#filter9_b_79_1317)">
<path d="M79.6518 52.9786C79.6017 53.1047 76.5469 64.0444 76.5469 64.0985C76.5469 64.1225 76.917 64.1345 77.3749 64.1285L78.1966 64.1105L78.8615 61.7255L79.5264 59.3345H80.4736C81.6779 59.3345 81.6591 59.3225 81.6528 60.1996C81.6528 60.7583 81.6152 60.9325 81.2012 62.3984C80.9503 63.2755 80.7496 64.0264 80.7496 64.0624C80.7496 64.1225 80.9566 64.1405 81.5587 64.1405C82.2801 64.1405 82.3742 64.1285 82.4055 64.0324C82.4244 63.9783 82.6502 63.1613 82.9074 62.2181C83.3151 60.7583 83.3841 60.4279 83.3841 60.0194C83.3841 59.2564 83.1834 58.8599 82.6815 58.6256C82.4934 58.5355 82.4495 58.4995 82.5435 58.4935C82.738 58.4935 83.3841 58.1691 83.6789 57.9288C84.118 57.5623 84.2936 57.2259 84.6072 56.1205C84.8707 55.2014 84.9021 55.0512 84.877 54.6186C84.8456 54.0479 84.7076 53.7535 84.3187 53.4231C83.7793 52.9485 83.7165 52.9365 81.5776 52.9185C80.0533 52.9005 79.6769 52.9125 79.6518 52.9786ZM82.9826 54.7328C83.1144 54.8589 83.1959 54.9971 83.1959 55.0932C83.1959 55.4056 82.6941 57.0156 82.5184 57.2559C82.2236 57.6584 82.048 57.7125 80.9566 57.7125C80.4297 57.7125 79.9968 57.7005 79.9968 57.6764C79.9968 57.6464 80.7997 54.7328 80.8436 54.6006C80.8625 54.5465 81.1196 54.5285 81.8222 54.5285H82.7694L82.9826 54.7328Z" fill="#FF4800"/>
</g>
<path d="M80.9949 55.0207C80.7754 55.8077 80.3614 57.2736 80.3363 57.3637C80.3112 57.4418 80.3363 57.4718 80.4304 57.4718C80.5245 57.4718 80.5746 57.4117 80.6248 57.2135C80.7252 56.859 81.2521 55.0027 81.2897 54.8705C81.3148 54.7985 81.2897 54.7684 81.1956 54.7684C81.1015 54.7684 81.0514 54.8285 80.9949 55.0207Z" fill="#FF4800"/>
<path d="M81.4964 55.0207C81.2768 55.8077 80.8628 57.2736 80.8377 57.3637C80.8127 57.4418 80.8377 57.4718 80.9318 57.4718C81.0259 57.4718 81.0761 57.4117 81.1263 57.2135C81.2267 56.859 81.7536 55.0027 81.7912 54.8705C81.8163 54.7985 81.7912 54.7684 81.6971 54.7684C81.603 54.7684 81.5528 54.8285 81.4964 55.0207Z" fill="#FF4800"/>
<g filter="url(#filter10_b_79_1317)">
<path d="M89.2364 52.9906C88.3143 53.2069 87.3107 53.9758 86.9093 54.7688C86.7775 55.0331 86.3134 56.6011 85.4854 59.5748C84.8142 62.0019 84.2622 64.0264 84.2622 64.0624C84.2622 64.1225 84.4692 64.1405 85.0777 64.1405H85.8868L85.9496 63.9122C85.9872 63.7921 86.282 62.7228 86.6082 61.5393C86.9406 60.3498 87.2104 59.3706 87.2104 59.3586C87.2104 59.3465 87.7749 59.3345 88.4712 59.3345C89.6379 59.3345 89.7257 59.3405 89.6943 59.4367C89.6191 59.689 88.4022 64.0805 88.4022 64.1105C88.4022 64.1285 88.7723 64.1345 89.2302 64.1285L90.0581 64.1105L91.3064 59.6649C92.724 54.6126 92.7303 54.5706 92.3978 53.9157C92.0278 53.1948 91.3942 52.9005 90.2275 52.9125C89.8637 52.9125 89.4121 52.9485 89.2364 52.9906ZM90.6666 54.7027C90.9175 54.949 90.905 55.1172 90.5098 56.511L90.1836 57.6825L88.9479 57.7005C88.0321 57.7125 87.7122 57.6945 87.7122 57.6464C87.7122 57.5082 88.352 55.2795 88.4335 55.1293C88.4774 55.0452 88.5841 54.919 88.6656 54.8469C88.9604 54.5826 89.1549 54.5285 89.8323 54.5285C90.4659 54.5285 90.4847 54.5345 90.6666 54.7027Z" fill="#FF4800"/>
</g>
<path d="M88.8418 54.9907C88.6662 55.1409 88.6097 55.2911 88.3337 56.2703C88.1644 56.8831 88.0264 57.3997 88.0264 57.4237C88.0264 57.4538 88.0765 57.4718 88.1393 57.4718C88.2271 57.4718 88.3024 57.2675 88.5533 56.3544C88.7352 55.6996 88.9234 55.1469 89.0112 55.0328C89.1805 54.7864 89.099 54.7684 88.8418 54.9907Z" fill="#FF4800"/>
<path d="M89.343 54.9907C89.1674 55.1409 89.1109 55.2911 88.8349 56.2703C88.6656 56.8831 88.5276 57.3997 88.5276 57.4237C88.5276 57.4538 88.5778 57.4718 88.6405 57.4718C88.7283 57.4718 88.8036 57.2675 89.0545 56.3544C89.2364 55.6996 89.4246 55.1469 89.5124 55.0328C89.6818 54.7864 89.6002 54.7684 89.343 54.9907Z" fill="#FF4800"/>
<path d="M17.0067 53.429C17.5085 54.1079 17.5399 54.6545 17.151 55.9882C17.0067 56.4808 16.8938 56.8954 16.8938 56.9074C16.8938 56.9194 16.944 56.9314 17.013 56.9314C17.1761 56.9314 17.6465 55.2733 17.6465 54.6726C17.6465 54.1199 17.4082 53.6393 16.9879 53.3269C16.8813 53.2488 16.8875 53.2608 17.0067 53.429Z" fill="#FF4800"/>
<path d="M17.5087 53.429C18.0105 54.1079 18.0418 54.6545 17.6529 55.9882C17.5087 56.4808 17.3958 56.8954 17.3958 56.9074C17.3958 56.9194 17.4459 56.9314 17.5149 56.9314C17.678 56.9314 18.1485 55.2733 18.1485 54.6726C18.1485 54.1199 17.9101 53.6393 17.4898 53.3269C17.3832 53.2488 17.3895 53.2608 17.5087 53.429Z" fill="#FF4800"/>
<path d="M24.7214 53.5006C25.01 53.879 25.1292 54.2815 25.0978 54.7561C25.079 55.0265 24.665 56.6245 23.8307 59.6222C23.1407 62.0733 22.6013 64.0978 22.6201 64.1159C22.6389 64.1399 22.6954 64.1399 22.7393 64.1219C22.8271 64.0918 25.2797 55.3929 25.3424 54.8883C25.4052 54.3476 25.0978 53.6267 24.6713 53.3444C24.5584 53.2663 24.5646 53.2963 24.7214 53.5006Z" fill="#FF4800"/>
<path d="M25.2239 53.5006C25.5124 53.879 25.6316 54.2815 25.6003 54.7561C25.5814 55.0265 25.1674 56.6245 24.3332 59.6222C23.6432 62.0733 23.1037 64.0978 23.1225 64.1159C23.1414 64.1399 23.1978 64.1399 23.2417 64.1219C23.3295 64.0918 25.7822 55.3929 25.8449 54.8883C25.9076 54.3476 25.6003 53.6267 25.1737 53.3444C25.0608 53.2663 25.0671 53.2963 25.2239 53.5006Z" fill="#FF4800"/>
<path d="M47.5367 53.327C47.568 53.3751 47.6433 53.4892 47.706 53.5793C47.9005 53.8497 48.0134 54.2402 48.0134 54.6487C48.0134 54.9731 47.7876 55.8502 46.7589 59.5568C46.0626 62.0439 45.498 64.0925 45.498 64.1105C45.498 64.1285 45.5482 64.1405 45.611 64.1405C45.7113 64.1405 45.8995 63.5278 47.0035 59.5688C48.1953 55.2795 48.2706 54.9671 48.2455 54.5886C48.2078 54.138 47.9946 53.6935 47.6747 53.4051C47.5743 53.315 47.5116 53.2789 47.5367 53.327Z" fill="#FF4800"/>
<path d="M48.0379 53.327C48.0692 53.3751 48.1445 53.4892 48.2072 53.5793C48.4017 53.8497 48.5146 54.2402 48.5146 54.6487C48.5146 54.9731 48.2888 55.8502 47.2601 59.5568C46.5638 62.0439 45.9993 64.0925 45.9993 64.1105C45.9993 64.1285 46.0494 64.1405 46.1122 64.1405C46.2125 64.1405 46.4007 63.5278 47.5047 59.5688C48.6965 55.2795 48.7718 54.9671 48.7467 54.5886C48.7091 54.138 48.4958 53.6935 48.1759 53.4051C48.0755 53.315 48.0128 53.2789 48.0379 53.327Z" fill="#FF4800"/>
<path d="M84.7276 53.3865C85.2733 54.1795 85.2984 54.6722 84.8781 56.12C84.5331 57.2854 84.414 57.5197 83.931 57.9703C83.6236 58.2647 83.5922 58.3067 83.7679 58.2226C84.0251 58.0904 84.5896 57.5558 84.7276 57.3095C84.7778 57.2073 84.9534 56.6787 85.1102 56.132C85.5305 54.6662 85.4866 54.1014 84.9095 53.5187C84.7527 53.3625 84.6711 53.3024 84.7276 53.3865Z" fill="#FF4800"/>
<path d="M85.2276 53.3868C85.7734 54.1797 85.7985 54.6724 85.3782 56.1202C85.0332 57.2916 84.914 57.5199 84.4247 57.9825C84.0421 58.343 84.1676 58.3069 84.6757 57.9164C85.1147 57.58 85.2966 57.2316 85.604 56.1442C86.0305 54.6664 85.9866 54.1016 85.4096 53.5189C85.2527 53.3627 85.1712 53.3026 85.2276 53.3868Z" fill="#FF4800"/>
<path d="M92.4422 53.4589C92.6931 53.7833 92.8562 54.2399 92.8562 54.6363C92.8562 54.9067 92.5489 56.0902 91.6017 59.4964C90.9117 61.9775 90.3472 64.0381 90.3472 64.0802C90.3472 64.1162 90.3973 64.1402 90.4538 64.1282C90.5416 64.1162 90.8113 63.2031 91.8087 59.6646C92.9252 55.6877 93.057 55.171 93.0632 54.7385C93.0632 54.2278 92.9942 53.9996 92.7057 53.6331C92.6179 53.525 92.4861 53.3928 92.4109 53.3387C92.2854 53.2546 92.2854 53.2666 92.4422 53.4589Z" fill="#FF4800"/>
<path d="M92.9435 53.4589C93.1944 53.7833 93.3575 54.2399 93.3575 54.6363C93.3575 54.9067 93.0501 56.0902 92.1029 59.4964C91.4129 61.9775 90.8484 64.0381 90.8484 64.0802C90.8484 64.1162 90.8986 64.1402 90.955 64.1282C91.0428 64.1162 91.3126 63.2031 92.3099 59.6646C93.4265 55.6877 93.5582 55.171 93.5645 54.7385C93.5645 54.2278 93.4955 53.9996 93.2069 53.6331C93.1191 53.525 92.9874 53.3928 92.9121 53.3387C92.7866 53.2546 92.7866 53.2666 92.9435 53.4589Z" fill="#FF4800"/>
<path d="M67.7089 54.9907C65.6641 62.3079 65.1936 64.002 65.1936 64.0681C65.1936 64.1101 65.2438 64.1402 65.3002 64.1282C65.3818 64.1161 65.6766 63.1489 66.7116 59.4543C67.4267 56.8951 68.0163 54.7925 68.0163 54.7805C68.0163 54.7745 67.9598 54.7685 67.8908 54.7685C67.803 54.7685 67.7528 54.8285 67.7089 54.9907Z" fill="#FF4800"/>
<path d="M68.2107 54.9907C66.1658 62.3079 65.6953 64.002 65.6953 64.0681C65.6953 64.1101 65.7455 64.1402 65.8019 64.1282C65.8835 64.1161 66.1783 63.1489 67.2133 59.4543C67.9284 56.8951 68.518 54.7925 68.518 54.7805C68.518 54.7745 68.4616 54.7685 68.3926 54.7685C68.3047 54.7685 68.2546 54.8285 68.2107 54.9907Z" fill="#FF4800"/>
<path d="M13.3564 55.0027C13.231 55.1289 13.1432 55.3391 13.0114 55.8257C12.7605 56.7509 12.7166 57.1414 12.8421 57.3276C12.8985 57.4057 12.9675 57.4718 12.9926 57.4718C13.0177 57.4718 13.0365 57.2736 13.0428 57.0333C13.0428 56.5046 13.3439 55.3151 13.5509 55.0328C13.7265 54.7744 13.6011 54.7564 13.3564 55.0027Z" fill="#FF4800"/>
<path d="M13.858 55.0027C13.7326 55.1289 13.6385 55.3391 13.5068 55.8378C13.2559 56.7689 13.2182 57.1354 13.3437 57.3216C13.4001 57.4057 13.4691 57.4718 13.4942 57.4718C13.5193 57.4718 13.5381 57.2736 13.5444 57.0333C13.5444 56.5046 13.8455 55.3151 14.0525 55.0328C14.2281 54.7744 14.1027 54.7564 13.858 55.0027Z" fill="#FF4800"/>
<path d="M49.9006 60.3495C49.3361 62.386 48.8782 64.0741 48.8782 64.0981C48.8844 64.1282 48.9284 64.1402 48.9911 64.1282C49.0726 64.1162 49.3047 63.3412 50.0825 60.5657C51.0172 57.2316 51.1238 56.757 50.967 56.6668C50.9419 56.6548 50.4652 58.3129 49.9006 60.3495Z" fill="#FF4800"/>
<path d="M54.0661 58.1147C53.3573 58.9017 52.7739 59.5625 52.7739 59.5865C52.7739 59.7367 53.0123 59.5024 54.1539 58.2469C55.2203 57.0694 55.5214 56.6909 55.3834 56.6909C55.3708 56.6909 54.7749 57.3337 54.0661 58.1147Z" fill="#FF4800"/>
<path d="M51.18 57.5619C51.1549 57.6641 50.7409 59.1479 50.2579 60.8661C49.7812 62.5842 49.386 64.026 49.386 64.0681C49.386 64.1101 49.4299 64.1402 49.4926 64.1282C49.5742 64.1161 49.7812 63.4373 50.4586 61.0163C50.9353 59.3161 51.3242 57.8563 51.3242 57.7722C51.3242 57.6881 51.2991 57.568 51.2741 57.5019C51.2301 57.3997 51.2176 57.4058 51.18 57.5619Z" fill="#FF4800"/>
<path d="M54.2478 58.4634C53.7272 59.0401 53.3007 59.5387 53.2881 59.5747C53.2128 59.779 53.4951 59.5207 54.2541 58.6856C55.0006 57.8626 55.2766 57.5022 55.2076 57.4361C55.195 57.4301 54.7622 57.8926 54.2478 58.4634Z" fill="#FF4800"/>
<path d="M15.6653 58.3369C15.9978 58.7574 16.1044 59.0758 16.0605 59.5865C16.0229 60.1632 15.5022 61.9594 15.245 62.422C15.0506 62.7704 14.4359 63.4373 14.0407 63.7136C13.8525 63.8458 13.8588 63.8458 14.1348 63.7076C14.5739 63.4913 15.2701 62.7945 15.5273 62.3079C15.7845 61.8153 16.3302 59.9169 16.3302 59.5084C16.3239 59.0338 16.0291 58.4811 15.6402 58.1987L15.4458 58.0666L15.6653 58.3369Z" fill="#FF4800"/>
<path d="M16.167 58.3369C16.4995 58.7574 16.6061 59.0758 16.5622 59.5865C16.5246 60.1632 16.0039 61.9594 15.7467 62.422C15.5523 62.7704 14.9376 63.4373 14.5424 63.7136C14.3542 63.8458 14.3605 63.8458 14.6365 63.7076C15.0756 63.4913 15.7718 62.7945 16.029 62.3079C16.2862 61.8153 16.8319 59.9169 16.8319 59.5084C16.8256 59.0338 16.5308 58.4811 16.1419 58.1987L15.9475 58.0666L16.167 58.3369Z" fill="#FF4800"/>
<path d="M38.679 58.8657C38.7982 59.094 38.817 59.2141 38.817 59.8449C38.8107 60.5538 38.8044 60.5959 38.3277 62.278C38.0643 63.2212 37.8447 64.0262 37.8447 64.0682C37.8447 64.1163 37.8949 64.1403 37.9514 64.1283C38.0329 64.1163 38.1646 63.7198 38.5535 62.3681C38.9613 60.9203 39.0491 60.5238 39.0804 60.0191C39.1181 59.3463 39.0616 59.082 38.8044 58.7936C38.5786 58.5353 38.5159 58.5713 38.679 58.8657Z" fill="#FF4800"/>
<path d="M39.1812 58.8657C39.3004 59.094 39.3192 59.2141 39.3192 59.8449C39.3129 60.5538 39.3066 60.5959 38.8299 62.278C38.5665 63.2212 38.3469 64.0262 38.3469 64.0682C38.3469 64.1163 38.3971 64.1403 38.4536 64.1283C38.5351 64.1163 38.6668 63.7198 39.0557 62.3681C39.4635 60.9203 39.5513 60.5238 39.5826 60.0191C39.6203 59.3463 39.5638 59.082 39.3066 58.7936C39.0808 58.5353 39.0181 58.5713 39.1812 58.8657Z" fill="#FF4800"/>
<path d="M83.321 58.6917C83.321 58.7097 83.3775 58.8179 83.4402 58.926C83.6472 59.2684 83.7287 59.8031 83.6472 60.3077C83.597 60.6442 82.8631 63.4016 82.6561 64.0324C82.631 64.1105 82.6561 64.1405 82.7502 64.1405C82.8192 64.1405 82.8882 64.0925 82.907 64.0324C82.9258 63.9783 83.1516 63.1493 83.4151 62.1941C83.9671 60.2056 84.0173 59.7911 83.7664 59.2324C83.6472 58.9741 83.321 58.5716 83.321 58.6917Z" fill="#FF4800"/>
<path d="M83.8857 58.8359C83.9547 58.932 84.0551 59.1903 84.1115 59.4126C84.1993 59.755 84.2056 59.8932 84.1491 60.2837C84.0927 60.6382 83.3651 63.3956 83.1581 64.0324C83.133 64.1105 83.1581 64.1405 83.2521 64.1405C83.3211 64.1405 83.3901 64.0925 83.409 64.0324C83.4278 63.9783 83.6599 63.1433 83.9233 62.1881C84.5569 59.9173 84.5694 59.4667 84.0362 58.8599C83.8355 58.6316 83.7101 58.6136 83.8857 58.8359Z" fill="#FF4800"/>
<path d="M26.6866 61.4251C26.2914 62.8369 25.9589 64.0264 25.9401 64.0624C25.9276 64.1105 25.9652 64.1405 26.0467 64.1405C26.1408 64.1405 26.191 64.0865 26.2349 63.9122C26.2726 63.7921 26.5674 62.7228 26.8998 61.5453C27.4644 59.5087 27.5522 59.0942 27.4455 58.932C27.4205 58.896 27.0817 60.0194 26.6866 61.4251Z" fill="#FF4800"/>
<path d="M19.6539 59.5989C19.6539 59.6229 18.4746 63.8702 18.4244 64.0324C18.3993 64.1105 18.4244 64.1405 18.5185 64.1405C18.6126 64.1405 18.6628 64.0805 18.7067 63.9122C18.9137 63.1613 19.8546 59.7671 19.8797 59.677C19.9048 59.6049 19.8797 59.5748 19.7856 59.5748C19.7103 59.5748 19.6539 59.5868 19.6539 59.5989Z" fill="#FF4800"/>
<path d="M20.1563 59.5989C20.1563 59.6229 18.977 63.8702 18.9269 64.0324C18.9018 64.1105 18.9269 64.1405 19.0209 64.1405C19.115 64.1405 19.1652 64.0805 19.2091 63.9122C19.4161 63.1613 20.357 59.7671 20.3821 59.677C20.4072 59.6049 20.3821 59.5748 20.288 59.5748C20.2128 59.5748 20.1563 59.5868 20.1563 59.5989Z" fill="#FF4800"/>
<path d="M34.8643 59.6469C34.8141 59.8031 33.6411 64.0564 33.6411 64.0985C33.6411 64.1225 33.6913 64.1405 33.754 64.1405C33.8669 64.1405 33.8795 64.1045 34.927 60.3077C35.1215 59.6169 35.1215 59.5748 35.0086 59.5748C34.9458 59.5748 34.8768 59.6109 34.8643 59.6469Z" fill="#FF4800"/>
<path d="M35.3679 59.6469C35.3178 59.8031 34.1448 64.0564 34.1448 64.0985C34.1448 64.1225 34.195 64.1405 34.2577 64.1405C34.3706 64.1405 34.3831 64.1045 35.4307 60.3077C35.6251 59.6169 35.6251 59.5748 35.5122 59.5748C35.4495 59.5748 35.3805 59.6109 35.3679 59.6469Z" fill="#FF4800"/>
<path d="M41.9657 61.8153C41.627 63.0408 41.351 64.0741 41.3573 64.0981C41.3573 64.1282 41.4075 64.1402 41.4639 64.1282C41.5455 64.1162 41.696 63.6416 42.1476 62.0075C42.8815 59.3762 42.8376 59.5745 42.6934 59.5745C42.5993 59.5745 42.4926 59.8989 41.9657 61.8153Z" fill="#FF4800"/>
<path d="M42.4674 61.8153C42.1287 63.0408 41.8527 64.0741 41.859 64.0981C41.859 64.1282 41.9029 64.1402 41.9656 64.1282C42.0472 64.1162 42.204 63.6175 42.6807 61.9174C43.0194 60.7099 43.2954 59.6886 43.3017 59.6466C43.3017 59.6105 43.2515 59.5745 43.1951 59.5745C43.101 59.5745 42.9818 59.9469 42.4674 61.8153Z" fill="#FF4800"/>
<path d="M72.0003 59.6469C71.9501 59.8031 70.7771 64.0564 70.7771 64.0985C70.7771 64.1225 70.8273 64.1405 70.89 64.1405C71.0029 64.1405 71.0155 64.1045 72.063 60.3077C72.2574 59.6169 72.2574 59.5748 72.1445 59.5748C72.0818 59.5748 72.0128 59.6109 72.0003 59.6469Z" fill="#FF4800"/>
<path d="M72.502 59.6469C72.4518 59.8031 71.2788 64.0564 71.2788 64.0985C71.2788 64.1225 71.329 64.1405 71.3917 64.1405C71.5046 64.1405 71.5172 64.1045 72.5647 60.3077C72.7592 59.6169 72.7592 59.5748 72.6462 59.5748C72.5835 59.5748 72.5145 59.6109 72.502 59.6469Z" fill="#FF4800"/>
<path d="M79.0997 61.7793C78.7672 62.9989 78.4912 64.0262 78.4912 64.0682C78.4912 64.1163 78.5414 64.1403 78.5978 64.1283C78.6794 64.1163 78.8299 63.6417 79.2816 62.0076C80.0155 59.3763 79.9716 59.5746 79.8273 59.5746C79.7332 59.5746 79.6266 59.893 79.0997 61.7793Z" fill="#FF4800"/>
<path d="M79.6011 61.7793C79.2687 62.9989 78.9927 64.0262 78.9927 64.0682C78.9927 64.1163 79.0429 64.1403 79.0993 64.1283C79.1809 64.1163 79.3314 63.6417 79.783 62.0076C80.5169 59.3763 80.473 59.5746 80.3288 59.5746C80.2347 59.5746 80.128 59.893 79.6011 61.7793Z" fill="#FF4800"/>
<path d="M87.398 59.5989C87.398 59.6229 86.2187 63.8702 86.1686 64.0324C86.1435 64.1105 86.1686 64.1405 86.2626 64.1405C86.3567 64.1405 86.4069 64.0805 86.4508 63.9122C86.6578 63.1613 87.5987 59.7671 87.6238 59.677C87.6489 59.6049 87.6238 59.5748 87.5297 59.5748C87.4545 59.5748 87.398 59.5868 87.398 59.5989Z" fill="#FF4800"/>
<path d="M87.9 59.5989C87.9 59.6229 86.7207 63.8702 86.6705 64.0324C86.6454 64.1105 86.6705 64.1405 86.7646 64.1405C86.8587 64.1405 86.9089 64.0805 86.9528 63.9122C87.1598 63.1613 88.1007 59.7671 88.1258 59.677C88.1509 59.6049 88.1258 59.5748 88.0317 59.5748C87.9564 59.5748 87.9 59.5868 87.9 59.5989Z" fill="#FF4800"/>
<path d="M11.7567 60.3074C11.7253 60.4155 11.6062 60.8301 11.4933 61.2206C11.3114 61.8634 11.2988 61.9535 11.3804 62.0856C11.5121 62.3139 11.6062 62.3139 11.5748 62.0796C11.556 61.9234 11.8445 60.7339 12.0327 60.1873C12.0515 60.1452 12.0076 60.1152 11.9386 60.1152C11.8633 60.1152 11.8006 60.1813 11.7567 60.3074Z" fill="#FF4800"/>
<path d="M12.2584 60.3074C12.2271 60.4155 12.1079 60.8301 11.995 61.2206C11.8131 61.8634 11.8005 61.9535 11.8821 62.0856C12.0138 62.3139 12.1079 62.3139 12.0765 62.0796C12.0577 61.9234 12.3462 60.7339 12.5344 60.1873C12.5532 60.1452 12.5093 60.1152 12.4403 60.1152C12.3651 60.1152 12.3023 60.1813 12.2584 60.3074Z" fill="#FF4800"/>
<path d="M26.9994 62.08C26.7108 63.1313 26.4599 64.0264 26.4411 64.0624C26.4285 64.1105 26.4662 64.1405 26.5477 64.1405C26.6418 64.1405 26.692 64.0865 26.7359 63.9122C26.7673 63.7921 26.9805 63.0171 27.2126 62.2001C27.5576 60.9325 27.6141 60.6742 27.5764 60.4399C27.5263 60.1876 27.4949 60.2837 26.9994 62.08Z" fill="#FF4800"/>
<path d="M114.246 63.8818C114.164 64.074 113.895 64.6327 113.644 65.1313C110.2 71.8838 104.298 75.7106 95.8921 76.6357C90.667 77.2064 84.5512 76.6838 76.8295 75.0077C74.4334 74.485 70.0425 73.3977 66.2977 72.4004C66.1158 72.3464 67.408 73.0853 68.6437 73.7341C76.5034 77.8613 84.2626 79.9939 91.426 79.9999C102.397 80.0059 111.028 74.8875 113.744 66.7414C114.064 65.7862 114.541 63.5393 114.422 63.5393C114.409 63.5393 114.327 63.6955 114.246 63.8818Z" fill="#FF4800"/>
<path d="M55.7294 65.7026C52.4676 65.9669 49.3438 67.0903 45.8625 69.265C45.3857 69.5594 44.9968 69.8057 44.9968 69.8117C44.9968 69.8177 45.6931 69.6015 46.5524 69.3311C49.1054 68.5141 51.5957 67.9794 53.6468 67.7992C54.7132 67.7091 57.078 67.7572 57.9812 67.8953C60.3147 68.2438 62.0146 68.7784 66.0165 70.4245C72.0006 72.8876 75.3691 73.9149 79.7787 74.6177C86.9735 75.7652 92.8071 75.4768 97.3736 73.7406C99.9642 72.7554 102.241 71.2115 103.91 69.3071C104.418 68.7304 105.214 67.6791 105.214 67.589C105.214 67.5649 105.095 67.649 104.951 67.7812C104.487 68.2017 103.954 68.6102 103.176 69.1569C99.3244 71.8423 94.7328 73.0077 89.0497 72.7434C87.4251 72.6653 85.8005 72.5211 84.2637 72.3109C79.1515 71.608 76.3476 70.8931 68.7389 68.3459C63.5388 66.6037 61.6068 66.0871 59.2044 65.7987C58.2384 65.6846 56.5636 65.6365 55.7294 65.7026Z" fill="#FF4800"/>
<path d="M50.6092 69.9131C48.8215 70.0753 46.8519 70.67 45.4343 71.469L44.9011 71.7694L45.9361 71.7334C47.6925 71.6673 50.1012 71.8655 52.0081 72.226C54.4669 72.6886 56.6749 73.3914 60.7647 75.0255C63.97 76.3051 65.2183 76.7677 66.7927 77.2663C69.7346 78.2035 72.5636 78.7321 75.1667 78.8343L76.0763 78.8703L75.8881 78.7502C75.0099 78.2155 66.4603 74.2085 62.8723 72.6525C57.8604 70.4838 53.9087 69.6007 50.6092 69.9131Z" fill="#FF4800"/>
<path d="M15.9026 70.3876C15.8587 70.4537 15.7834 70.5077 15.7332 70.5077C15.6266 70.5077 15.6078 70.6038 15.7019 70.6579C15.7395 70.6759 15.7646 70.754 15.7646 70.8261C15.7646 70.9403 15.796 70.9583 16.0155 70.9583C16.235 70.9583 16.2664 70.9403 16.2664 70.8261C16.2664 70.754 16.2978 70.6759 16.3291 70.6579C16.4232 70.6038 16.4044 70.5077 16.2978 70.5077C16.2476 70.5077 16.1723 70.4537 16.1284 70.3876C16.0845 70.3215 16.0343 70.2674 16.0155 70.2674C15.9967 70.2674 15.9465 70.3215 15.9026 70.3876Z" fill="#FF4800"/>
<path d="M16.8438 70.3883C16.7999 70.4544 16.7246 70.5085 16.6744 70.5085C16.5678 70.5085 16.5489 70.6046 16.643 70.6587C16.6807 70.6767 16.7058 70.7548 16.7058 70.8269C16.7058 70.941 16.7371 70.959 16.9567 70.959C17.1762 70.959 17.2076 70.941 17.2076 70.8269C17.2076 70.7548 17.2389 70.6767 17.2703 70.6587C17.3644 70.6046 17.3456 70.5085 17.2389 70.5085C17.1888 70.5085 17.1135 70.4544 17.0696 70.3883C17.0257 70.3222 16.9755 70.2682 16.9567 70.2682C16.9379 70.2682 16.8877 70.3222 16.8438 70.3883Z" fill="#FF4800"/>
<path d="M17.9035 70.3758C17.8659 70.4479 17.7718 70.508 17.7028 70.508C17.5899 70.508 17.5836 70.52 17.6651 70.6342C17.7153 70.7002 17.7467 70.8024 17.7279 70.8564C17.7091 70.9405 17.753 70.9586 17.985 70.9586C18.236 70.9586 18.2673 70.9465 18.236 70.8504C18.2171 70.7843 18.2485 70.6882 18.3112 70.6221C18.4116 70.514 18.4116 70.508 18.2924 70.508C18.2234 70.508 18.123 70.4479 18.0729 70.3758L17.9788 70.2437L17.9035 70.3758Z" fill="#FF4800"/>
<path d="M18.9138 70.3878C18.8699 70.4539 18.7946 70.508 18.7445 70.508C18.6378 70.508 18.619 70.6041 18.7131 70.6582C18.7507 70.6762 18.7758 70.7543 18.7758 70.8264C18.7758 70.9405 18.8072 70.9586 19.0267 70.9586C19.2463 70.9586 19.2776 70.9405 19.2776 70.8264C19.2776 70.7543 19.309 70.6762 19.3404 70.6582C19.4345 70.6041 19.4156 70.508 19.309 70.508C19.2588 70.508 19.1836 70.4539 19.1396 70.3878C19.0957 70.3218 19.0456 70.2677 19.0267 70.2677C19.0079 70.2677 18.9577 70.3218 18.9138 70.3878Z" fill="#FF4800"/>
<path d="M19.9725 70.3763C19.9348 70.4484 19.8407 70.5085 19.7655 70.5085C19.64 70.5085 19.64 70.5145 19.7404 70.6226C19.8031 70.6887 19.8345 70.7848 19.8156 70.8509C19.7843 70.947 19.8156 70.959 20.0603 70.959C20.2798 70.959 20.3363 70.941 20.3112 70.8749C20.2924 70.8269 20.3237 70.7308 20.3739 70.6527C20.4617 70.5205 20.4617 70.5085 20.3488 70.5085C20.2861 70.5085 20.192 70.4484 20.1418 70.3763L20.0477 70.2442L19.9725 70.3763Z" fill="#FF4800"/>
<path d="M20.9837 70.3883C20.9397 70.4544 20.8645 70.5085 20.8143 70.5085C20.7077 70.5085 20.6888 70.6046 20.7829 70.6587C20.8206 70.6767 20.8457 70.7548 20.8457 70.8269C20.8457 70.941 20.877 70.959 21.0966 70.959C21.3161 70.959 21.3475 70.941 21.3475 70.8269C21.3475 70.7548 21.3788 70.6767 21.4102 70.6587C21.5043 70.6046 21.4855 70.5085 21.3788 70.5085C21.3286 70.5085 21.2534 70.4544 21.2095 70.3883C21.1656 70.3222 21.1154 70.2682 21.0966 70.2682C21.0777 70.2682 21.0276 70.3222 20.9837 70.3883Z" fill="#FF4800"/>
<path d="M22.0435 70.3761C22.0058 70.4482 21.9117 70.5082 21.8365 70.5082C21.711 70.5082 21.711 70.5142 21.8051 70.6164C21.8678 70.6765 21.9117 70.7786 21.9117 70.8447C21.9117 70.9348 21.9556 70.9588 22.1689 70.9648C22.3822 70.9648 22.4198 70.9468 22.3947 70.8567C22.3759 70.8026 22.401 70.7245 22.4512 70.6825C22.5766 70.5863 22.5578 70.5082 22.4198 70.5082C22.3571 70.5082 22.263 70.4482 22.2128 70.3761L22.1187 70.2439L22.0435 70.3761Z" fill="#FF4800"/>
<path d="M23.0537 70.3883C23.0098 70.4544 22.9345 70.5085 22.8844 70.5085C22.7777 70.5085 22.7589 70.6046 22.853 70.6587C22.8906 70.6767 22.9157 70.7548 22.9157 70.8269C22.9157 70.941 22.9471 70.959 23.1666 70.959C23.3862 70.959 23.4175 70.941 23.4175 70.8269C23.4175 70.7548 23.4489 70.6767 23.4803 70.6587C23.5744 70.6046 23.5555 70.5085 23.4489 70.5085C23.3987 70.5085 23.3297 70.4544 23.2921 70.3883C23.2544 70.3222 23.2043 70.2682 23.1792 70.2682C23.1541 70.2682 23.0976 70.3222 23.0537 70.3883Z" fill="#FF4800"/>
<path d="M24.1199 70.3883C24.076 70.4544 24.0007 70.5085 23.9505 70.5085C23.8439 70.5085 23.8251 70.6046 23.9192 70.6587C23.9568 70.6767 23.9819 70.7548 23.9819 70.8269C23.9819 70.941 24.0132 70.959 24.2328 70.959C24.4523 70.959 24.4837 70.941 24.4837 70.8269C24.4837 70.7548 24.5151 70.6767 24.5464 70.6587C24.6405 70.6046 24.6217 70.5085 24.5151 70.5085C24.4649 70.5085 24.3896 70.4544 24.3457 70.3883C24.3018 70.3222 24.2516 70.2682 24.2328 70.2682C24.214 70.2682 24.1638 70.3222 24.1199 70.3883Z" fill="#FF4800"/>
<path d="M25.1798 70.3761C25.1421 70.4482 25.0481 70.5082 24.9853 70.5082C24.8411 70.5082 24.8222 70.5863 24.9477 70.6825C24.9979 70.7245 25.023 70.8026 25.0041 70.8567C24.9791 70.9468 25.0167 70.9648 25.23 70.9648C25.4432 70.9588 25.4871 70.9348 25.4871 70.8447C25.4871 70.7786 25.531 70.6765 25.5938 70.6164C25.6879 70.5142 25.6879 70.5082 25.5687 70.5082C25.4997 70.5082 25.3993 70.4482 25.3491 70.3761L25.2551 70.2439L25.1798 70.3761Z" fill="#FF4800"/>
<path d="M26.1897 70.3878C26.1458 70.4539 26.0705 70.508 26.0203 70.508C25.9137 70.508 25.8949 70.6041 25.989 70.6582C26.0266 70.6762 26.0517 70.7543 26.0517 70.8264C26.0517 70.9405 26.0831 70.9586 26.3026 70.9586C26.5222 70.9586 26.5535 70.9405 26.5535 70.8264C26.5535 70.7543 26.5849 70.6762 26.6162 70.6582C26.7103 70.6041 26.6915 70.508 26.5849 70.508C26.5347 70.508 26.4594 70.4539 26.4155 70.3878C26.3716 70.3218 26.3214 70.2677 26.3026 70.2677C26.2838 70.2677 26.2336 70.3218 26.1897 70.3878Z" fill="#FF4800"/>
<path d="M27.2503 70.3758C27.2126 70.4479 27.1185 70.508 27.0495 70.508C26.9366 70.508 26.9366 70.52 27.0244 70.6522C27.0746 70.7303 27.106 70.8264 27.0872 70.8745C27.0621 70.9405 27.1185 70.9586 27.3381 70.9586C27.5827 70.9586 27.6141 70.9465 27.5827 70.8504C27.5639 70.7843 27.5953 70.6882 27.658 70.6221C27.7583 70.514 27.7583 70.508 27.6392 70.508C27.5702 70.508 27.4698 70.4479 27.4196 70.3758L27.3255 70.2437L27.2503 70.3758Z" fill="#FF4800"/>
<path d="M28.259 70.3883C28.2151 70.4544 28.1399 70.5085 28.0897 70.5085C27.983 70.5085 27.9642 70.6046 28.0583 70.6587C28.096 70.6767 28.121 70.7548 28.121 70.8269C28.121 70.941 28.1524 70.959 28.372 70.959C28.5915 70.959 28.6229 70.941 28.6229 70.8269C28.6229 70.7548 28.6542 70.6767 28.6856 70.6587C28.7797 70.6046 28.7609 70.5085 28.6542 70.5085C28.604 70.5085 28.5288 70.4544 28.4849 70.3883C28.441 70.3222 28.3908 70.2682 28.372 70.2682C28.3531 70.2682 28.303 70.3222 28.259 70.3883Z" fill="#FF4800"/>
<path d="M29.3199 70.3758C29.2822 70.4479 29.1881 70.508 29.1129 70.508C28.9874 70.508 28.9874 70.514 29.0878 70.6221C29.1505 70.6882 29.1819 70.7843 29.1631 70.8504C29.1317 70.9465 29.1631 70.9586 29.4077 70.9586C29.6272 70.9586 29.6837 70.9405 29.6586 70.8745C29.6398 70.8264 29.6711 70.7303 29.7213 70.6522C29.8091 70.52 29.8091 70.508 29.6962 70.508C29.6335 70.508 29.5394 70.4479 29.4892 70.3758L29.3951 70.2437L29.3199 70.3758Z" fill="#FF4800"/>
<path d="M30.3296 70.3878C30.2857 70.4539 30.2104 70.508 30.1602 70.508C30.0536 70.508 30.0348 70.6041 30.1289 70.6582C30.1665 70.6762 30.1916 70.7543 30.1916 70.8264C30.1916 70.9405 30.223 70.9586 30.4425 70.9586C30.6621 70.9586 30.6934 70.9405 30.6934 70.8264C30.6934 70.7543 30.7248 70.6762 30.7561 70.6582C30.8502 70.6041 30.8314 70.508 30.7248 70.508C30.6746 70.508 30.5993 70.4539 30.5554 70.3878C30.5115 70.3218 30.4613 70.2677 30.4425 70.2677C30.4237 70.2677 30.3735 70.3218 30.3296 70.3878Z" fill="#FF4800"/>
<path d="M31.3887 70.3761C31.351 70.4482 31.257 70.5082 31.1817 70.5082C31.0562 70.5082 31.0562 70.5142 31.1503 70.6164C31.213 70.6765 31.257 70.7786 31.257 70.8447C31.257 70.9348 31.3009 70.9588 31.5141 70.9648C31.7274 70.9648 31.765 70.9468 31.74 70.8567C31.7211 70.8026 31.7462 70.7245 31.7964 70.6825C31.9219 70.5863 31.903 70.5082 31.765 70.5082C31.7023 70.5082 31.6082 70.4482 31.558 70.3761L31.464 70.2439L31.3887 70.3761Z" fill="#FF4800"/>
<path d="M32.4371 70.3878C32.3743 70.4539 32.2802 70.508 32.2301 70.508C32.1234 70.508 32.1046 70.6041 32.1987 70.6582C32.2363 70.6762 32.2614 70.7543 32.2614 70.8264C32.2614 70.9405 32.2928 70.9586 32.5123 70.9586C32.7319 70.9586 32.7632 70.9405 32.7632 70.8264C32.7632 70.7543 32.7946 70.6762 32.826 70.6582C32.9201 70.6041 32.9012 70.508 32.8009 70.508C32.757 70.508 32.6754 70.4539 32.6315 70.3878L32.5437 70.2617L32.4371 70.3878Z" fill="#FF4800"/>
<path d="M33.4651 70.3883C33.4212 70.4544 33.3459 70.5085 33.2957 70.5085C33.1891 70.5085 33.1703 70.6046 33.2644 70.6587C33.302 70.6767 33.3271 70.7548 33.3271 70.8269C33.3271 70.941 33.3585 70.959 33.578 70.959C33.7975 70.959 33.8289 70.941 33.8289 70.8269C33.8289 70.7548 33.8603 70.6767 33.8916 70.6587C33.9857 70.6046 33.9669 70.5085 33.8603 70.5085C33.8101 70.5085 33.7348 70.4544 33.6909 70.3883C33.647 70.3222 33.5968 70.2682 33.578 70.2682C33.5592 70.2682 33.509 70.3222 33.4651 70.3883Z" fill="#FF4800"/>
<path d="M34.5252 70.3763C34.4876 70.4484 34.3935 70.5085 34.3308 70.5085C34.1865 70.5085 34.1677 70.5866 34.2932 70.6827C34.3433 70.7248 34.3684 70.7968 34.3496 70.8569C34.3308 70.941 34.3684 70.959 34.6068 70.959C34.8577 70.959 34.8891 70.947 34.8577 70.8509C34.8389 70.7848 34.8702 70.6887 34.933 70.6226C35.0333 70.5145 35.0333 70.5085 34.9141 70.5085C34.8451 70.5085 34.7448 70.4484 34.6946 70.3763L34.6005 70.2442L34.5252 70.3763Z" fill="#FF4800"/>
<path d="M35.5357 70.3883C35.4917 70.4544 35.4165 70.5085 35.3663 70.5085C35.2597 70.5085 35.2408 70.6046 35.3349 70.6587C35.3726 70.6767 35.3977 70.7548 35.3977 70.8269C35.3977 70.941 35.429 70.959 35.6486 70.959C35.8681 70.959 35.8995 70.941 35.8995 70.8269C35.8995 70.7548 35.9308 70.6767 35.9622 70.6587C36.0563 70.6046 36.0375 70.5085 35.9308 70.5085C35.8807 70.5085 35.8054 70.4544 35.7615 70.3883C35.7176 70.3222 35.6674 70.2682 35.6486 70.2682C35.6297 70.2682 35.5796 70.3222 35.5357 70.3883Z" fill="#FF4800"/>
<path d="M36.5955 70.3763C36.5578 70.4484 36.4638 70.5085 36.3948 70.5085C36.2818 70.5085 36.2818 70.5205 36.3697 70.6527C36.4198 70.7308 36.4512 70.8269 36.4324 70.8749C36.4073 70.941 36.4638 70.959 36.6833 70.959C36.9279 70.959 36.9593 70.947 36.9279 70.8509C36.9091 70.7848 36.9405 70.6887 37.0032 70.6226C37.1036 70.5145 37.1036 70.5085 36.9844 70.5085C36.9154 70.5085 36.815 70.4484 36.7648 70.3763L36.6707 70.2442L36.5955 70.3763Z" fill="#FF4800"/>
<path d="M37.6062 70.3878C37.5623 70.4539 37.487 70.508 37.4369 70.508C37.3302 70.508 37.3114 70.6041 37.4055 70.6582C37.4431 70.6762 37.4682 70.7543 37.4682 70.8264C37.4682 70.9405 37.4996 70.9586 37.7191 70.9586C37.9387 70.9586 37.97 70.9405 37.97 70.8264C37.97 70.7543 38.0014 70.6762 38.0328 70.6582C38.1268 70.6041 38.108 70.508 38.0014 70.508C37.9512 70.508 37.8759 70.4539 37.832 70.3878C37.7881 70.3218 37.7379 70.2677 37.7191 70.2677C37.7003 70.2677 37.6501 70.3218 37.6062 70.3878Z" fill="#FF4800"/>
<path d="M38.6661 70.3763C38.6285 70.4484 38.5344 70.5085 38.4591 70.5085C38.3337 70.5085 38.3337 70.5145 38.4403 70.6286C38.4968 70.6887 38.5344 70.7908 38.5219 70.8509C38.4968 70.941 38.5344 70.959 38.7665 70.959C38.9986 70.959 39.0362 70.941 39.0174 70.8569C38.9986 70.7968 39.0237 70.7248 39.0739 70.6827C39.1993 70.5866 39.1805 70.5085 39.0425 70.5085C38.9798 70.5085 38.8857 70.4484 38.8355 70.3763L38.7414 70.2442L38.6661 70.3763Z" fill="#FF4800"/>
<path d="M39.6751 70.3883C39.6312 70.4544 39.5559 70.5085 39.5057 70.5085C39.3991 70.5085 39.3802 70.6046 39.4743 70.6587C39.512 70.6767 39.5371 70.7548 39.5371 70.8269C39.5371 70.941 39.5684 70.959 39.788 70.959C40.0075 70.959 40.0389 70.941 40.0389 70.8269C40.0389 70.7548 40.0702 70.6767 40.1016 70.6587C40.1957 70.6046 40.1769 70.5085 40.0702 70.5085C40.0201 70.5085 39.9448 70.4544 39.9009 70.3883C39.857 70.3222 39.8068 70.2682 39.788 70.2682C39.7691 70.2682 39.719 70.3222 39.6751 70.3883Z" fill="#FF4800"/>
<path d="M40.7349 70.3763C40.6973 70.4484 40.622 70.5085 40.5719 70.5085C40.4652 70.5085 40.4464 70.6046 40.5405 70.6587C40.5781 70.6767 40.6032 70.7548 40.6032 70.8269C40.6032 70.941 40.6346 70.959 40.8541 70.959C41.0737 70.959 41.105 70.941 41.105 70.8269C41.105 70.7548 41.1364 70.6767 41.1678 70.6587C41.2744 70.5986 41.2368 70.5085 41.1113 70.5085C41.0486 70.5085 40.9545 70.4484 40.9043 70.3763L40.8102 70.2442L40.7349 70.3763Z" fill="#FF4800"/>
<path d="M41.8031 70.3758C41.7654 70.4479 41.6713 70.508 41.6086 70.508C41.4643 70.508 41.4455 70.5861 41.571 70.6822C41.6212 70.7243 41.6463 70.8024 41.6274 70.8564C41.6086 70.9405 41.6463 70.9586 41.8533 70.9586C42.0665 70.9586 42.1104 70.9405 42.1104 70.8444C42.1104 70.7783 42.1543 70.6762 42.2171 70.6161C42.3112 70.514 42.3112 70.508 42.192 70.508C42.123 70.508 42.0226 70.4479 41.9724 70.3758L41.8783 70.2437L41.8031 70.3758Z" fill="#FF4800"/>
<path d="M42.812 70.3878C42.7681 70.4539 42.6928 70.508 42.6427 70.508C42.536 70.508 42.5172 70.6041 42.6113 70.6582C42.6489 70.6762 42.674 70.7543 42.674 70.8264C42.674 70.9405 42.7054 70.9586 42.9249 70.9586C43.1445 70.9586 43.1758 70.9405 43.1758 70.8264C43.1758 70.7543 43.2072 70.6762 43.2386 70.6582C43.3327 70.6041 43.3138 70.508 43.2072 70.508C43.157 70.508 43.0817 70.4539 43.0378 70.3878C42.9939 70.3218 42.9437 70.2677 42.9249 70.2677C42.9061 70.2677 42.8559 70.3218 42.812 70.3878Z" fill="#FF4800"/>
<path d="M43.871 70.3763C43.8334 70.4484 43.7393 70.5085 43.6703 70.5085C43.5574 70.5085 43.5511 70.5205 43.6327 70.6346C43.6829 70.7007 43.7142 70.8029 43.6954 70.8569C43.6766 70.941 43.7205 70.959 43.9526 70.959C44.2035 70.959 44.2348 70.947 44.2035 70.8509C44.1847 70.7848 44.216 70.6887 44.2788 70.6226C44.3791 70.5145 44.3791 70.5085 44.2599 70.5085C44.1909 70.5085 44.0906 70.4484 44.0404 70.3763L43.9463 70.2442L43.871 70.3763Z" fill="#FF4800"/>
<path d="M44.8816 70.3883C44.8377 70.4544 44.7624 70.5085 44.7122 70.5085C44.6056 70.5085 44.5868 70.6046 44.6809 70.6587C44.7185 70.6767 44.7436 70.7548 44.7436 70.8269C44.7436 70.941 44.775 70.959 44.9945 70.959C45.2141 70.959 45.2454 70.941 45.2454 70.8269C45.2454 70.7548 45.2768 70.6767 45.3081 70.6587C45.4022 70.6046 45.3834 70.5085 45.2768 70.5085C45.2266 70.5085 45.1513 70.4544 45.1074 70.3883C45.0635 70.3222 45.0133 70.2682 44.9945 70.2682C44.9757 70.2682 44.9255 70.3222 44.8816 70.3883Z" fill="#FF4800"/>
<defs>
<filter id="filter0_b_79_1317" x="5.39844" y="48.9209" width="15.7505" height="19.2134" filterUnits="userSpaceOnUse" color-interpolation-filters="sRGB">
<feFlood flood-opacity="0" result="BackgroundImageFix"/>
<feGaussianBlur in="BackgroundImageFix" stdDeviation="2"/>
<feComposite in2="SourceAlpha" operator="in" result="effect1_backgroundBlur_79_1317"/>
<feBlend mode="normal" in="SourceGraphic" in2="effect1_backgroundBlur_79_1317" result="shape"/>
</filter>
<filter id="filter1_b_79_1317" x="12.5171" y="48.9121" width="16.3184" height="19.2284" filterUnits="userSpaceOnUse" color-interpolation-filters="sRGB">
<feFlood flood-opacity="0" result="BackgroundImageFix"/>
<feGaussianBlur in="BackgroundImageFix" stdDeviation="2"/>
<feComposite in2="SourceAlpha" operator="in" result="effect1_backgroundBlur_79_1317"/>
<feBlend mode="normal" in="SourceGraphic" in2="effect1_backgroundBlur_79_1317" result="shape"/>
</filter>
<filter id="filter2_b_79_1317" x="20.0457" y="48.9065" width="16.9072" height="19.234" filterUnits="userSpaceOnUse" color-interpolation-filters="sRGB">
<feFlood flood-opacity="0" result="BackgroundImageFix"/>
<feGaussianBlur in="BackgroundImageFix" stdDeviation="2"/>
<feComposite in2="SourceAlpha" operator="in" result="effect1_backgroundBlur_79_1317"/>
<feBlend mode="normal" in="SourceGraphic" in2="effect1_backgroundBlur_79_1317" result="shape"/>
</filter>
<filter id="filter3_b_79_1317" x="27.7175" y="48.8547" width="16.9634" height="19.2911" filterUnits="userSpaceOnUse" color-interpolation-filters="sRGB">
<feFlood flood-opacity="0" result="BackgroundImageFix"/>
<feGaussianBlur in="BackgroundImageFix" stdDeviation="2"/>
<feComposite in2="SourceAlpha" operator="in" result="effect1_backgroundBlur_79_1317"/>
<feBlend mode="normal" in="SourceGraphic" in2="effect1_backgroundBlur_79_1317" result="shape"/>
</filter>
<filter id="filter4_b_79_1317" x="35.4131" y="48.9215" width="16.3425" height="19.219" filterUnits="userSpaceOnUse" color-interpolation-filters="sRGB">
<feFlood flood-opacity="0" result="BackgroundImageFix"/>
<feGaussianBlur in="BackgroundImageFix" stdDeviation="2"/>
<feComposite in2="SourceAlpha" operator="in" result="effect1_backgroundBlur_79_1317"/>
<feBlend mode="normal" in="SourceGraphic" in2="effect1_backgroundBlur_79_1317" result="shape"/>
</filter>
<filter id="filter5_b_79_1317" x="42.9397" y="48.9065" width="19.46" height="19.234" filterUnits="userSpaceOnUse" color-interpolation-filters="sRGB">
<feFlood flood-opacity="0" result="BackgroundImageFix"/>
<feGaussianBlur in="BackgroundImageFix" stdDeviation="2"/>
<feComposite in2="SourceAlpha" operator="in" result="effect1_backgroundBlur_79_1317"/>
<feBlend mode="normal" in="SourceGraphic" in2="effect1_backgroundBlur_79_1317" result="shape"/>
</filter>
<filter id="filter6_b_79_1317" x="53.6672" y="48.9065" width="12.7483" height="19.234" filterUnits="userSpaceOnUse" color-interpolation-filters="sRGB">
<feFlood flood-opacity="0" result="BackgroundImageFix"/>
<feGaussianBlur in="BackgroundImageFix" stdDeviation="2"/>
<feComposite in2="SourceAlpha" operator="in" result="effect1_backgroundBlur_79_1317"/>
<feBlend mode="normal" in="SourceGraphic" in2="effect1_backgroundBlur_79_1317" result="shape"/>
</filter>
<filter id="filter7_b_79_1317" x="59.2361" y="48.9058" width="14.8499" height="19.2401" filterUnits="userSpaceOnUse" color-interpolation-filters="sRGB">
<feFlood flood-opacity="0" result="BackgroundImageFix"/>
<feGaussianBlur in="BackgroundImageFix" stdDeviation="2"/>
<feComposite in2="SourceAlpha" operator="in" result="effect1_backgroundBlur_79_1317"/>
<feBlend mode="normal" in="SourceGraphic" in2="effect1_backgroundBlur_79_1317" result="shape"/>
</filter>
<filter id="filter8_b_79_1317" x="64.8511" y="48.9065" width="16.9507" height="19.234" filterUnits="userSpaceOnUse" color-interpolation-filters="sRGB">
<feFlood flood-opacity="0" result="BackgroundImageFix"/>
<feGaussianBlur in="BackgroundImageFix" stdDeviation="2"/>
<feComposite in2="SourceAlpha" operator="in" result="effect1_backgroundBlur_79_1317"/>
<feBlend mode="normal" in="SourceGraphic" in2="effect1_backgroundBlur_79_1317" result="shape"/>
</filter>
<filter id="filter9_b_79_1317" x="72.5469" y="48.9109" width="16.3372" height="19.2296" filterUnits="userSpaceOnUse" color-interpolation-filters="sRGB">
<feFlood flood-opacity="0" result="BackgroundImageFix"/>
<feGaussianBlur in="BackgroundImageFix" stdDeviation="2"/>
<feComposite in2="SourceAlpha" operator="in" result="effect1_backgroundBlur_79_1317"/>
<feBlend mode="normal" in="SourceGraphic" in2="effect1_backgroundBlur_79_1317" result="shape"/>
</filter>
<filter id="filter10_b_79_1317" x="80.2622" y="48.9121" width="16.3157" height="19.2284" filterUnits="userSpaceOnUse" color-interpolation-filters="sRGB">
<feFlood flood-opacity="0" result="BackgroundImageFix"/>
<feGaussianBlur in="BackgroundImageFix" stdDeviation="2"/>
<feComposite in2="SourceAlpha" operator="in" result="effect1_backgroundBlur_79_1317"/>
<feBlend mode="normal" in="SourceGraphic" in2="effect1_backgroundBlur_79_1317" result="shape"/>
</filter>
</defs>
</svg>
