<svg width="47" height="50" viewBox="0 0 47 50" fill="none" xmlns="http://www.w3.org/2000/svg">
<path d="M46.2626 44.7963L41.17 4.05555C41.03 2.93566 40.4858 1.90545 39.6397 1.15862C38.7935 0.41178 37.7037 -0.000245677 36.5751 1.09901e-07H9.72323C8.59462 -0.000245677 7.5048 0.41178 6.65864 1.15862C5.81248 1.90545 5.26827 2.93566 5.12832 4.05555L0.0357308 44.7963C-0.045678 45.4477 0.0124003 46.1091 0.206111 46.7363C0.399821 47.3636 0.724734 47.9426 1.15928 48.4347C1.59384 48.9268 2.12809 49.3209 2.72658 49.5908C3.32507 49.8606 3.97411 50.0001 4.63064 50H14.0496C15.0772 50.0032 16.0764 49.6633 16.889 49.0344C17.7017 48.4054 18.2812 47.5233 18.5357 46.5278L23.1491 28.7037L27.7579 46.5139C28.0123 47.5116 28.5919 48.396 29.4052 49.0274C30.2185 49.6588 31.2191 50.001 32.2487 50H41.6677C42.3242 50.0001 42.9732 49.8606 43.5717 49.5908C44.1702 49.3209 44.7045 48.9268 45.139 48.4347C45.5736 47.9426 45.8985 47.3636 46.0922 46.7363C46.2859 46.1091 46.344 45.4477 46.2626 44.7963ZM37.501 19.4977C36.653 19.0071 35.927 18.331 35.3774 17.52C34.8278 16.709 34.4688 15.7842 34.3274 14.8148H36.9153L37.501 19.4977ZM35.7579 5.55555L36.2209 9.25926H10.0774L10.5404 5.55555H35.7579ZM9.38295 14.8148H11.9709C11.83 15.7841 11.4712 16.7088 10.9215 17.5195C10.3718 18.3301 9.64556 19.0057 8.7973 19.4954L9.38295 14.8148ZM13.3343 44.4444H5.67925L8.02647 25.669C10.5733 25.1304 12.8775 23.7822 14.5948 21.8258C16.3121 19.8694 17.3503 17.41 17.5542 14.8148H20.3714V17.2384L13.3343 44.4444ZM32.9663 44.4444L25.9269 17.2384V14.8148H28.7441C28.9482 17.4097 29.9864 19.8688 31.7037 21.8248C33.4211 23.7808 35.7252 25.1285 38.2718 25.6667L40.619 44.4444H32.9663Z" fill="#FF4800"/>
</svg>
