<svg width="54" height="50" viewBox="0 0 54 50" fill="none" xmlns="http://www.w3.org/2000/svg">
<path d="M51.9596 10.1367L46.3593 1.2793C45.8609 0.488281 44.9715 0 44.0234 0H9.15099C8.20294 0 7.31354 0.488281 6.81508 1.2793L1.205 10.1367C-1.68801 14.707 0.872694 21.0645 6.27753 21.7969C6.66848 21.8457 7.0692 21.875 7.46014 21.875C10.0111 21.875 12.2786 20.7617 13.8326 19.043C15.3866 20.7617 17.6541 21.875 20.205 21.875C22.7559 21.875 25.0234 20.7617 26.5774 19.043C28.1314 20.7617 30.3989 21.875 32.9499 21.875C35.5106 21.875 37.7683 20.7617 39.3223 19.043C40.8861 20.7617 43.1438 21.875 45.6947 21.875C46.0954 21.875 46.4864 21.8457 46.8773 21.7969C52.3017 21.0742 54.8722 14.7168 51.9694 10.1367H51.9596ZM47.278 24.8926H47.2683C46.7503 24.9609 46.2225 25 45.6849 25C44.473 25 43.3099 24.8145 42.2251 24.4824V37.5H10.9493V24.4727C9.85469 24.8145 8.68185 25 7.46992 25C6.93237 25 6.39481 24.9609 5.87681 24.8926H5.86704C5.46632 24.834 5.07537 24.7656 4.6942 24.668V43.75C4.6942 47.1973 7.49924 50 10.9493 50H42.2251C45.6752 50 48.4802 47.1973 48.4802 43.75V24.668C48.0893 24.7656 47.6983 24.8438 47.278 24.8926Z" fill="#FF4800"/>
</svg>
