<svg width="48" height="50" viewBox="0 0 48 50" fill="none" xmlns="http://www.w3.org/2000/svg">
<path d="M21.8487 0C21.4286 0 21.0084 0.420168 20.1681 1.2605V4.62185H15.0707C13.4454 2.94118 13.4454 2.94118 11.7647 4.62185C10.084 6.30252 10.084 6.30252 11.7647 7.98319C13.4454 9.66387 13.4454 9.66387 14.9968 7.98319H20.1681V11.3445H23.5294V7.98319H28.6453C30.3053 9.66387 30.3049 9.66387 31.9856 7.98319C33.6663 6.30252 33.6663 6.30252 31.9856 4.62185C30.3049 2.94118 30.3053 2.94118 28.5714 4.62185H23.5294V1.2605C22.6891 0.420168 22.2689 0 21.8487 0ZM0 8.19328V35.084H3.36134V8.19328H0ZM6.72269 13.2353L5.04202 11.5546V31.7227L6.72269 30.042V13.2353ZM21.8487 13.0252C18.4874 13.0252 16.77 13.0252 16.6775 16.3866H8.40336V26.4706H15.1917C16.8067 28.1513 18.4874 29.8319 21.8487 29.8319C25.2101 29.8319 26.8908 28.1513 28.5714 26.4706C35.2941 26.4706 35.2941 26.4706 35.2941 29.8319V33.1933H45.3782V26.4706C45.3782 19.7479 42.0168 16.3866 35.2941 16.3866H26.8908C26.9275 13.0252 25.2101 13.0252 21.8487 13.0252ZM33.6134 34.874V36.5546H47.0588V34.874H33.6134ZM40.3361 38.2353C40.3361 38.2353 36.2581 43.6618 36.9748 46.8487C37.4181 48.8193 38.3162 50 40.3361 50C42.3561 50 43.2542 48.8193 43.6975 46.8487C44.4142 43.6618 40.3361 38.2353 40.3361 38.2353Z" fill="#FF4800"/>
</svg>
